<svg xmlns="http://www.w3.org/2000/svg" width="25" height="25" fill="none"><path fill="#d0d0d0" d="M.298 12.465c0-.96.132-1.96.385-2.886.693-2.731 2.194-4.963 4.427-6.655C6.88 1.577 8.844.808 11.077.577 11.462.538 11.885.5 12.27.5c.039 0 .116-.002.154 0a23 23 0 0 1 1.925.192c2.415.415 4.389 1.385 6.121 3.04 3.08 2.962 4.312 6.54 3.657 10.772-.423 2.808-1.77 5.155-3.888 7.002-2.964 2.577-6.467 3.5-10.317 2.731-2.849-.538-5.159-2.039-6.968-4.27C1.491 18.159.644 15.82.387 13.738a9 9 0 0 1-.09-1.273M18.622 5.04c-3.734-3.27-9.855-3.27-13.628.884-3.657 4.04-3.04 9.772-.192 12.889 4.62-4.579 9.2-9.195 13.82-13.773"/></svg>