<svg xmlns="http://www.w3.org/2000/svg" width="49" height="49" viewBox="0 0 49 49">
  <defs>
    <style>
      .cls-1 {
        fill: #fff;
        fill-rule: evenodd;
      }
    </style>
  </defs>
  <path id="Composite_Path" data-name="Composite Path" class="cls-1" d="M1358.86,1027.16a14.593,14.593,0,0,0-3.07,11.18,14.742,14.742,0,0,0,5.98,9.86,15.437,15.437,0,0,0,8.19,2.8h0.66a14.9,14.9,0,0,0,14.38-14.4v-0.68a15.241,15.241,0,0,0-3.66-9.24A14.625,14.625,0,0,0,1358.86,1027.16Zm9.68,0.04c1.22-1.27,3.86-.7,4.11,1.16,0.22,1.82.05,3.66,0.1,5.48a14.043,14.043,0,0,1,3.43.2,2.51,2.51,0,0,1,.62,4.15c-0.8.67-1.91,0.53-2.87,0.57a37.637,37.637,0,0,1-4.25-.11,2.276,2.276,0,0,1-1.81-2.29c-0.07-2.01.01-4.02-.03-6.04C1367.87,1029.27,1367.72,1028.02,1368.54,1027.2Zm-22.89-25.2a2.53,2.53,0,0,0-1.98,1.21,10.176,10.176,0,0,0-.34,3.69c-1.81.05-3.63-.12-5.43,0.11a2.511,2.511,0,0,0-1.9,2.32v34.58a2.588,2.588,0,0,0,2.66,2.17c4.9,0.04,9.81,0,14.72.01a19.52,19.52,0,0,1,29.17-24.99c0-3.56-.01-7.12.01-10.68a3.6,3.6,0,0,0-.68-2.62c-1.03-1.24-2.81-.82-4.21-0.91a10,10,0,0,0-.35-3.7,2.511,2.511,0,0,0-1.99-1.19h-0.21a2.514,2.514,0,0,0-2.12,1.33,12.267,12.267,0,0,0-.26,3.58l-24.48-.01a11.937,11.937,0,0,0-.27-3.58,2.5,2.5,0,0,0-2.12-1.32h-0.22Z" transform="translate(-1336 -1002)"/>
</svg>
