<svg xmlns="http://www.w3.org/2000/svg" fill="#e51b48" viewBox="0 0 286.41 60.86"><g data-name="Layer 2"><g data-name="Layer 1"><path d="M146.68 5.64a17.2 17.2 0 0 0-6-4.12A21.25 21.25 0 0 0 132.34 0h-14.16v21h8.69V7.8h5.47a10.8 10.8 0 0 1 4.28.81 8.6 8.6 0 0 1 3.2 2.33 10.4 10.4 0 0 1 2 3.6 15 15 0 0 1 .68 4.63 14.8 14.8 0 0 1-.68 4.58 11 11 0 0 1-2 3.63 8.8 8.8 0 0 1-3.17 2.41 10.3 10.3 0 0 1-4.34.87h-5.47v-3h-8.69v10.82h14.16a21.6 21.6 0 0 0 7.89-1.38 17.4 17.4 0 0 0 6.07-3.9 17.1 17.1 0 0 0 3.87-6.07 22.1 22.1 0 0 0 1.35-7.94 22.5 22.5 0 0 0-1.22-7.45 17.2 17.2 0 0 0-3.59-6.1m20.92 5.66a12.3 12.3 0 0 0-3.82 4.47V10h-8v28.48h8.67V21.41a7.22 7.22 0 0 1 3.71-2.93 16.4 16.4 0 0 1 5.66-1V9.65a10 10 0 0 0-1.35-.05 9.15 9.15 0 0 0-4.87 1.7m34.54 2.6a14.2 14.2 0 0 0-4.77-3.22 16.4 16.4 0 0 0-6.45-1.19 16.6 16.6 0 0 0-6.48 1.19 13.9 13.9 0 0 0-4.8 3.25 14.1 14.1 0 0 0-3 4.8 16.4 16.4 0 0 0-1 5.83 14.9 14.9 0 0 0 1 5.5 13.6 13.6 0 0 0 3 4.63 14.3 14.3 0 0 0 4.82 3.17 16.8 16.8 0 0 0 6.47 1.14 16.14 16.14 0 0 0 8.45-2.11 13.26 13.26 0 0 0 5.2-5.47l-7.37-2.06a4.7 4.7 0 0 1-2.36 2.49 7.8 7.8 0 0 1-3.66.92 6.64 6.64 0 0 1-4.25-1.49 5.84 5.84 0 0 1-2.09-4.36h21a11 11 0 0 0 .16-1.27q.05-.73.05-1.49a15.7 15.7 0 0 0-1-5.58 13.7 13.7 0 0 0-2.92-4.68m-17.45 7.67a6.63 6.63 0 0 1 1.92-4.25 5.8 5.8 0 0 1 4.2-1.6 5.88 5.88 0 0 1 4.19 1.57 6.52 6.52 0 0 1 2 4.28Zm50.57 7.15v-7.31q0-5.85-3.52-8.89t-10-3a22 22 0 0 0-6.45.92 22.8 22.8 0 0 0-5.85 2.76l2.56 5.39a21.4 21.4 0 0 1 4.44-2.36 12.7 12.7 0 0 1 4.44-.79q5.69 0 5.69 4.93v1.3a11.4 11.4 0 0 0-2.93-.89 20 20 0 0 0-3.47-.3 16.3 16.3 0 0 0-4.93.7 12.5 12.5 0 0 0-3.85 2 8.84 8.84 0 0 0-2.52 3A8.3 8.3 0 0 0 208 30a8.5 8.5 0 0 0 .76 3.6 9.1 9.1 0 0 0 2.06 2.87 9.2 9.2 0 0 0 3.12 1.9 11.2 11.2 0 0 0 3.93.68 12.36 12.36 0 0 0 5.55-1.3 13 13 0 0 0 4.52-3.75l.16 1.3a4.1 4.1 0 0 0 1.57 2.66 6.3 6.3 0 0 0 3.63 1q.81 0 1.87-.08a17 17 0 0 0 2.3-.35v-7.37a2.67 2.67 0 0 1-1.73-.62 2.63 2.63 0 0 1-.48-1.82m-8.67.22a2.69 2.69 0 0 1-1.25 2.06 6.4 6.4 0 0 1-2.19 1.3 7.9 7.9 0 0 1-2.74.49 4.55 4.55 0 0 1-3-1 3.21 3.21 0 0 1-1.19-2.57 3.31 3.31 0 0 1 1.54-2.82 6.7 6.7 0 0 1 3.93-1.08 13.7 13.7 0 0 1 2.47.24 14 14 0 0 1 2.47.68Zm59.53-12.36a10.1 10.1 0 0 0-1.22-3.5 7.26 7.26 0 0 0-2.57-2.6 8.35 8.35 0 0 0-4.36-1 12.56 12.56 0 0 0-6.07 1.44 10.8 10.8 0 0 0-4.24 4.08 7.2 7.2 0 0 0-.89-2.14 7 7 0 0 0-1.57-1.76 7.2 7.2 0 0 0-2.3-1.19 10.1 10.1 0 0 0-3.09-.43 13.9 13.9 0 0 0-6.29 1.35 10.3 10.3 0 0 0-4.28 4V10h-7.8v28.48h8.67V22.17a7.9 7.9 0 0 1 2.41-3.66 5.25 5.25 0 0 1 3.39-1.38 3.24 3.24 0 0 1 2.68 1.27 6.65 6.65 0 0 1 1 4.09v16h8.67V22.17a8.1 8.1 0 0 1 2.41-3.63 5.2 5.2 0 0 1 3.39-1.41 3.24 3.24 0 0 1 2.68 1.27 6.65 6.65 0 0 1 1 4.09v16h8.67V20.27a24 24 0 0 0-.29-3.69M43.46 12.5a7.26 7.26 0 0 0-2.57-2.6 8.35 8.35 0 0 0-4.36-1 12.56 12.56 0 0 0-6.07 1.44 10.8 10.8 0 0 0-4.23 4.09 7.2 7.2 0 0 0-.89-2.14 7 7 0 0 0-1.57-1.76 7.2 7.2 0 0 0-2.3-1.19 10.1 10.1 0 0 0-3.09-.43 13.9 13.9 0 0 0-6.29 1.35 10.27 10.27 0 0 0-4.28 4V9.44H0v28.45h8.67V21.58a7.9 7.9 0 0 1 2.41-3.66 5.25 5.25 0 0 1 3.39-1.38 3.24 3.24 0 0 1 2.68 1.27 6.64 6.64 0 0 1 1 4.09v16h8.67V21.58a8.1 8.1 0 0 1 2.41-3.63 5.2 5.2 0 0 1 3.39-1.41 3.24 3.24 0 0 1 2.68 1.27 6.64 6.64 0 0 1 1 4.09v16H45V19.68a24 24 0 0 0-.3-3.69 10.1 10.1 0 0 0-1.24-3.49m31.76.81a14.2 14.2 0 0 0-4.77-3.22A16.4 16.4 0 0 0 64 8.9a16.6 16.6 0 0 0-6.48 1.19 13.9 13.9 0 0 0-4.8 3.25 14.1 14.1 0 0 0-3 4.8 16.4 16.4 0 0 0-1 5.83 14.9 14.9 0 0 0 1 5.5 13.6 13.6 0 0 0 3 4.63 14.3 14.3 0 0 0 4.82 3.17A16.8 16.8 0 0 0 64 38.43a16.14 16.14 0 0 0 8.45-2.11 13.26 13.26 0 0 0 5.2-5.47l-7.37-2.06a4.7 4.7 0 0 1-2.36 2.49 7.8 7.8 0 0 1-3.66.92A6.64 6.64 0 0 1 60 30.71a5.84 5.84 0 0 1-2.09-4.36H79a11 11 0 0 0 .16-1.27q.05-.73.05-1.49a15.7 15.7 0 0 0-1-5.58 13.7 13.7 0 0 0-2.99-4.7M57.77 21a6.63 6.63 0 0 1 1.92-4.25 5.8 5.8 0 0 1 4.2-1.6 5.88 5.88 0 0 1 4.17 1.57A6.52 6.52 0 0 1 70 21Zm44.86 6.72a7.1 7.1 0 0 1-2.21 2.34A6.17 6.17 0 0 1 97 31.12a6.39 6.39 0 0 1-4.93-2.06 7.45 7.45 0 0 1-1.9-5.26 8.9 8.9 0 0 1 .46-2.87A7.3 7.3 0 0 1 92 18.54a6.9 6.9 0 0 1 2-1.65 5.4 5.4 0 0 1 2.57-.62 6.15 6.15 0 0 1 3.77 1.38 7.8 7.8 0 0 1 2.55 3.35h8.58V0h-8.56v14.08a9.7 9.7 0 0 0-3.73-3.78 10.54 10.54 0 0 0-5.37-1.4 11.3 11.3 0 0 0-5.07 1.1 12.35 12.35 0 0 0-4 3.12 14.2 14.2 0 0 0-2.6 4.69 17.9 17.9 0 0 0-.92 5.8 16.7 16.7 0 0 0 1 5.88A14.7 14.7 0 0 0 85 34.2a12.5 12.5 0 0 0 4.25 3.12 13 13 0 0 0 5.39 1.11 11.86 11.86 0 0 0 5.47-1.3 9.7 9.7 0 0 0 2.8-2.13v3.46h8.56V27.72Z" class="cls-1"/><path d="M13.88 60.67H12.3l-2.77-9.2q-.2-.61-.44-1.54a9 9 0 0 1-.25-1.12 21 21 0 0 1-.66 2.72l-2.69 9.14H3.91L.25 46.93h1.7l2.17 8.49a32 32 0 0 1 .66 3.23 23 23 0 0 1 .75-3.37L8 46.93h1.68l2.58 8.43a26 26 0 0 1 .74 3.29 28 28 0 0 1 .68-3.25l2.16-8.47h1.69Zm13.49 0h-7.66V46.93h7.66v1.42h-6.06v4.43H27v1.41h-5.7v5.06h6.06Zm3.05-13.74h3.88a7.33 7.33 0 0 1 4 .82 2.89 2.89 0 0 1 1.22 2.58 3 3 0 0 1-.68 2 3.28 3.28 0 0 1-2 1v.09q3.13.53 3.13 3.29a3.53 3.53 0 0 1-1.25 2.88 5.3 5.3 0 0 1-3.48 1h-4.82ZM32 52.82h2.63a4.3 4.3 0 0 0 2.43-.53 2.05 2.05 0 0 0 .74-1.79 1.81 1.81 0 0 0-.8-1.67 5.17 5.17 0 0 0-2.63-.51H32Zm0 1.35v5.14h2.87a4.08 4.08 0 0 0 2.5-.64 2.38 2.38 0 0 0 .84-2 2.13 2.13 0 0 0-.86-1.88 4.6 4.6 0 0 0-2.62-.6Zm26.86-.5a6.94 6.94 0 0 1-1.86 5.2 7.3 7.3 0 0 1-5.32 1.8h-3.79V46.93h4.21a6.17 6.17 0 0 1 6.76 6.74m-1.69.06a5.54 5.54 0 0 0-1.35-4.05 5.4 5.4 0 0 0-4-1.36h-2.33v11h1.95a5.9 5.9 0 0 0 4.29-1.41 5.56 5.56 0 0 0 1.44-4.18m4.75 6.94V46.93h1.6v13.74Zm11.25-12.51a4.49 4.49 0 0 0-3.58 1.51 6.1 6.1 0 0 0-1.31 4.13 6.2 6.2 0 0 0 1.27 4.2 4.49 4.49 0 0 0 3.6 1.47 12.3 12.3 0 0 0 3.28-.52v1.4a10.1 10.1 0 0 1-3.53.54A6 6 0 0 1 68.22 59a7.58 7.58 0 0 1-1.65-5.24 8.25 8.25 0 0 1 .79-3.72 5.7 5.7 0 0 1 2.29-2.46 6.94 6.94 0 0 1 3.53-.86 8.5 8.5 0 0 1 3.78.79l-.68 1.37a7.3 7.3 0 0 0-3.11-.72m18.19 5.62A7.57 7.57 0 0 1 89.69 59a5.86 5.86 0 0 1-4.64 1.89A5.94 5.94 0 0 1 80.37 59a7.63 7.63 0 0 1-1.65-5.24 7.53 7.53 0 0 1 1.65-5.2 6 6 0 0 1 4.7-1.85 5.85 5.85 0 0 1 4.63 1.89 7.56 7.56 0 0 1 1.66 5.18m-10.95 0A6.53 6.53 0 0 0 81.6 58a4.86 4.86 0 0 0 6.9 0 6.62 6.62 0 0 0 1.17-4.24 6.56 6.56 0 0 0-1.16-4.21 4.16 4.16 0 0 0-3.43-1.43 4.24 4.24 0 0 0-3.47 1.44 6.46 6.46 0 0 0-1.2 4.22m20.09 6.89-4.66-12.18h-.08q.13 1.45.13 3.44v8.74h-1.47V46.93h2.41l4.35 11.33h.08l4.39-11.33H108v13.74h-1.6v-8.85q0-1.52.13-3.31h-.08l-4.7 12.16Zm18.32 0-3.91-10.3h1.67l2.22 6.11a29 29 0 0 1 .88 2.78h.08a21 21 0 0 1 .65-2.06q.55-1.57 2.47-6.83h1.67l-3.91 10.3Zm7.26-13.09a1 1 0 0 1 .26-.79 1 1 0 0 1 1.31 0 1 1 0 0 1 .27.78 1 1 0 0 1-.27.79 1 1 0 0 1-1.31 0 1.06 1.06 0 0 1-.26-.78m1.69 13.09h-1.56v-10.3h1.56Zm7.66.19a4.73 4.73 0 0 1-3.6-1.39 5.4 5.4 0 0 1-1.32-3.86 6 6 0 0 1 1.23-4 4.07 4.07 0 0 1 3.26-1.42 3.89 3.89 0 0 1 3.06 1.27 4.88 4.88 0 0 1 1.13 3.36v1h-7.1a4.08 4.08 0 0 0 .92 2.75 3.17 3.17 0 0 0 2.45.94 8.3 8.3 0 0 0 3.29-.7v1.39a8.3 8.3 0 0 1-1.57.51 9 9 0 0 1-1.75.15m-.43-9.37a2.55 2.55 0 0 0-2 .81 3.73 3.73 0 0 0-.87 2.24h5.39a3.43 3.43 0 0 0-.66-2.26 2.32 2.32 0 0 0-1.86-.79m15.29 9.18-1.89-6q-.18-.55-.67-2.52h-.08q-.38 1.65-.66 2.54l-1.95 6h-1.8l-2.81-10.3h1.64l1.52 5.91a24 24 0 0 1 .6 2.74h.08q.1-.54.33-1.39t.4-1.35l1.89-5.91h1.69l1.84 5.91a20 20 0 0 1 .71 2.72h.08a10 10 0 0 1 .2-1q.16-.7 2-7.58H155l-2.85 10.3Zm10.91.19a4.73 4.73 0 0 1-3.6-1.39 5.38 5.38 0 0 1-1.32-3.86 6 6 0 0 1 1.23-4 4.07 4.07 0 0 1 3.29-1.47 3.89 3.89 0 0 1 3.06 1.27 4.88 4.88 0 0 1 1.14 3.41v1h-7.1a4.08 4.08 0 0 0 .92 2.75 3.17 3.17 0 0 0 2.45.94 8.3 8.3 0 0 0 3.29-.7v1.39a8.3 8.3 0 0 1-1.56.51 8.8 8.8 0 0 1-1.8.15m-.42-9.37a2.55 2.55 0 0 0-2 .81 3.72 3.72 0 0 0-.87 2.24h5.38a3.43 3.43 0 0 0-.66-2.26 2.32 2.32 0 0 0-1.85-.79m11.57-1.3a6 6 0 0 1 1.23.11l-.22 1.45a5.3 5.3 0 0 0-1.13-.14 2.75 2.75 0 0 0-2.14 1 3.7 3.7 0 0 0-.89 2.53v5.53h-1.56v-10.3h1.29l.18 1.91h.08a4.5 4.5 0 0 1 1.38-1.55 3.1 3.1 0 0 1 1.78-.54" style="fill:#fff"/></g></g></svg>