<svg xmlns="http://www.w3.org/2000/svg" width="25" height="24" fill="none"><path fill="#d0d0d0" d="M16.695 17.47c-4.702 3.58-10.69 2.132-13.664-1.609C-.104 11.88.34 6.21 3.875 2.751c3.577-3.42 9.123-3.701 12.98-.564a9.786 9.786 0 0 1 1.528 13.594c.08.08.12.16.2.201l5.949 5.952c.442.443.522 1.046.2 1.529a1.134 1.134 0 0 1-1.808.16l-6.028-6.032c-.08-.04-.12-.08-.2-.121M10.667 2.348c-4.1 0-7.395 3.338-7.395 7.4s3.336 7.4 7.395 7.4c4.099 0 7.394-3.338 7.394-7.4s-3.295-7.4-7.394-7.4"/><path fill="#d0d0d0" d="M6.071 8.914H15.5V10.8H6.071z"/><path fill="#d0d0d0" d="M9.842 14.572v-9.43h1.886v9.43z"/></svg>