<?xml version="1.0" standalone="no"?>
<!-- Generator: Adobe Fireworks 10, Export SVG Extension by Aaron Beall (http://fireworks.abeall.com) . Version: 0.6.1  -->
<!DOCTYPE svg PUBLIC "-//W3C//DTD SVG 1.1//EN" "http://www.w3.org/Graphics/SVG/1.1/DTD/svg11.dtd">
<svg id="Untitled-Page%201" viewBox="0 0 562 457" style="background-color:#ffffff00" version="1.1"
	xmlns="http://www.w3.org/2000/svg" xmlns:xlink="http://www.w3.org/1999/xlink" xml:space="preserve"
	x="0px" y="0px" width="562px" height="457px"
>
	<defs>
		<linearGradient id="gradient1" x1="50%" y1="0%" x2="50%" y2="100%">
			<stop stop-color="#5936ff" stop-opacity="1" offset="0%"/>
			<stop stop-color="#6288f7" stop-opacity="1" offset="100%"/>
		</linearGradient>
		<linearGradient id="gradient2" x1="10.3673%" y1="-11.4682%" x2="89.6332%" y2="111.4693%">
			<stop stop-color="#35c9e2" stop-opacity="1" offset="0.5556%"/>
			<stop stop-color="#35e6bb" stop-opacity="1" offset="98.8889%"/>
		</linearGradient>
		<linearGradient id="gradient3" x1="10.3672%" y1="-11.4682%" x2="89.6331%" y2="111.4693%">
			<stop stop-color="#35c9e2" stop-opacity="0.498" offset="1%"/>
			<stop stop-color="#35e6bb" stop-opacity="1" offset="99%"/>
		</linearGradient>
		<linearGradient id="gradient4" x1="10.3672%" y1="-11.4683%" x2="89.6332%" y2="111.4693%">
			<stop stop-color="#35c9e2" stop-opacity="0.498" offset="1%"/>
			<stop stop-color="#35e6bb" stop-opacity="1" offset="99%"/>
		</linearGradient>
	</defs>
	<g>
		<path id="269" d="M 537 70.4456 L 537 384.7271 C 537 392.2529 530.4023 399 522.881 399 L 70.118 399 C 62.5975 399 57 392.2529 57 384.7271 L 57 70.4456 C 57 62.9338 62.5975 57 70.118 57 L 522.881 57 C 530.4023 57 537 62.9338 537 70.4456 Z" fill="#3d3d89"/>
		<path id="268" d="M 515.729 82.2517 L 515.729 366.8438 C 515.729 373.6592 509.7526 379.7686 502.9393 379.7686 L 92.8046 379.7686 C 85.9921 379.7686 80.9216 373.6592 80.9216 366.8438 L 80.9216 82.2517 C 80.9216 75.4497 85.9921 70.0764 92.8046 70.0764 L 502.9393 70.0764 C 509.7526 70.0764 515.729 75.4497 515.729 82.2517 Z" fill="url(#gradient1)"/>
		<g id="267">
			<path d="M 141 94.3335 C 141 84.6577 142.6576 83 152.3333 83 L 458.3334 83 C 468.009 83 469.6667 84.6577 469.6667 94.3335 L 469.6667 329.333 C 469.6667 339.0088 468.009 340.6665 458.3334 340.6665 L 152.3333 340.6665 C 142.6576 340.6665 141 339.0088 141 329.333 L 141 94.3335 Z" stroke="#ffffff" stroke-width="3" fill="none"/>
		</g>
		<path id="266" opacity="0.098" d="M 515.729 117.718 L 515.729 366.8438 C 515.729 373.6592 509.7526 379.7686 502.9393 379.7686 L 92.8046 379.7686 C 85.9921 379.7686 80.9216 373.6592 80.9216 366.8438 L 80.9216 269.8774 C 117.0112 200.647 203.0327 189.3577 303.754 229.8718 C 446.3298 287.2227 507.1288 209.377 515.729 117.718 Z" fill="#ffffff"/>
		<path id="265" opacity="0.2" d="M 227.7877 133.6155 L 132.5443 133.6155 C 125.7054 133.6155 120.162 128.0798 120.162 121.2522 L 120.162 26.1563 C 120.162 19.3279 125.7054 13.7922 132.5443 13.7922 L 227.7877 13.7922 C 234.6266 13.7922 240.1708 19.3279 240.1708 26.1563 L 240.1708 121.2522 C 240.1708 128.0798 234.6266 133.6155 227.7877 133.6155 Z" fill="#000000"/>
		<path id="264" d="M 243.9985 101.0417 L 164.192 101.0417 C 158.4618 101.0417 153.8159 96.4036 153.8159 90.6824 L 153.8159 10.9993 C 153.8159 5.2778 158.4618 0.6392 164.192 0.6392 L 243.9985 0.6392 C 249.7288 0.6392 254.374 5.2778 254.374 10.9993 L 254.374 90.6824 C 254.374 96.4036 249.7288 101.0417 243.9985 101.0417 Z" fill="#007bff"/>
		<path id="263" opacity="0.298" d="M 243.9985 101.0417 L 164.192 101.0417 C 158.4618 101.0417 153.8159 96.4036 153.8159 90.6824 L 153.8159 10.9993 C 153.8159 5.2778 158.4618 0.6392 164.192 0.6392 L 243.9985 0.6392 C 249.7288 0.6392 254.374 5.2778 254.374 10.9993 L 254.374 90.6824 C 254.374 96.4036 249.7288 101.0417 243.9985 101.0417 Z" fill="#ffffff"/>
		<path id="262" opacity="0.2" d="M 479.814 133.7471 L 402.5621 133.7471 C 397.0151 133.7471 392.5187 129.2576 392.5187 123.7192 L 392.5187 46.5876 C 392.5187 41.0491 397.0151 36.5596 402.5621 36.5596 L 479.814 36.5596 C 485.3604 36.5596 489.8568 41.0491 489.8568 46.5876 L 489.8568 123.7192 C 489.8568 129.2576 485.3604 133.7471 479.814 133.7471 Z" fill="#000000"/>
		<path id="261" d="M 491.7655 109.4316 L 427.0343 109.4316 C 422.3871 109.4316 418.6194 105.6692 418.6194 101.0291 L 418.6194 36.3979 C 418.6194 31.7573 422.3871 27.9954 427.0343 27.9954 L 491.7655 27.9954 C 496.4135 27.9954 500.1818 31.7573 500.1818 36.3979 L 500.1818 101.0291 C 500.1818 105.6692 496.4135 109.4316 491.7655 109.4316 Z" fill="#007bff"/>
		<path id="260" opacity="0.098" d="M 491.7655 109.4316 L 427.0343 109.4316 C 422.3871 109.4316 418.6194 105.6692 418.6194 101.0291 L 418.6194 36.3979 C 418.6194 31.7573 422.3871 27.9954 427.0343 27.9954 L 491.7655 27.9954 C 496.4135 27.9954 500.1818 31.7573 500.1818 36.3979 L 500.1818 101.0291 C 500.1818 105.6692 496.4135 109.4316 491.7655 109.4316 Z" fill="#ffffff"/>
		<path id="259" opacity="0.2" d="M 495.2144 109.4316 L 430.4832 109.4316 C 425.8352 109.4316 422.0675 105.6692 422.0675 101.0291 L 422.0675 36.3979 C 422.0675 31.7573 425.8352 27.9954 430.4832 27.9954 L 495.2144 27.9954 C 499.8623 27.9954 503.6299 31.7573 503.6299 36.3979 L 503.6299 101.0291 C 503.6299 105.6692 499.8623 109.4316 495.2144 109.4316 Z" fill="#ffffff"/>
		<path id="258" opacity="0.149" d="M 131.8328 313 L 15.1672 313 C 6.7913 313 0 306.2095 0 297.8315 L 0 181.168 C 0 172.7913 6.7913 166 15.1672 166 L 131.8328 166 C 140.2089 166 147 172.7913 147 181.168 L 147 297.8315 C 147 306.2095 140.2089 313 131.8328 313 Z" fill="#000000"/>
		<path id="256" opacity="0.149" d="M 518.7296 449 L 401.2704 449 C 392.8375 449 386 442.1633 386 433.7283 L 386 316.2712 C 386 307.8374 392.8375 301 401.2704 301 L 518.7296 301 C 527.1627 301 534 307.8374 534 316.2712 L 534 433.7283 C 534 442.1633 527.1627 449 518.7296 449 Z" fill="#000000"/>
		<path id="255" opacity="0.149" d="M 212.7932 457 L 111.2068 457 C 103.9136 457 98 451.0872 98 443.792 L 98 342.2075 C 98 334.9133 103.9136 329 111.2068 329 L 212.7932 329 C 220.0867 329 226 334.9133 226 342.2075 L 226 443.792 C 226 451.0872 220.0867 457 212.7932 457 Z" fill="#000000"/>
		<path id="254" d="M 159.2076 281.2058 L 45.7687 281.2058 C 37.6237 281.2058 31.0208 274.5908 31.0208 266.4302 L 31.0208 152.7756 C 31.0208 144.6155 37.6237 138 45.7687 138 L 159.2076 138 C 167.3528 138 173.9565 144.6155 173.9565 152.7756 L 173.9565 266.4302 C 173.9565 274.5908 167.3528 281.2058 159.2076 281.2058 Z" fill="#007bff"/>
		<path id="253" opacity="0.498" d="M 159.2076 281.2058 L 45.7687 281.2058 C 37.6237 281.2058 31.0208 274.5908 31.0208 266.4302 L 31.0208 152.7756 C 31.0208 144.6155 37.6237 138 45.7687 138 L 159.2076 138 C 167.3528 138 173.9565 144.6155 173.9565 152.7756 L 173.9565 266.4302 C 173.9565 274.5908 167.3528 281.2058 159.2076 281.2058 Z" fill="#54cee1"/>
		<path id="252" opacity="0.2" d="M 165.2512 281.2058 L 51.8112 281.2058 C 43.6661 281.2058 37.0643 274.5908 37.0643 266.4302 L 37.0643 152.7756 C 37.0643 144.6155 43.6661 138 51.8112 138 L 165.2512 138 C 173.3962 138 180 144.6155 180 152.7756 L 180 266.4302 C 180 274.5908 173.3962 281.2058 165.2512 281.2058 Z" fill="#ffffff"/>
		<path id="251" d="M 253.9645 283.179 L 350.1615 283.179 C 357.0688 283.179 362.6677 277.5881 362.6677 270.6914 L 362.6677 174.6431 C 362.6677 167.7473 357.0688 162.1565 350.1615 162.1565 L 253.9645 162.1565 C 247.0571 162.1565 241.4583 167.7473 241.4583 174.6431 L 241.4583 270.6914 C 241.4583 277.5881 247.0571 283.179 253.9645 283.179 Z" fill="#007bff"/>
		<path id="250" opacity="0.2" d="M 340.0703 306 L 232.9297 306 C 225.2372 306 219 299.7634 219 292.071 L 219 184.929 C 219 177.2358 225.2372 171 232.9297 171 L 340.0703 171 C 347.7634 171 354 177.2358 354 184.929 L 354 292.071 C 354 299.7634 347.7634 306 340.0703 306 Z" fill="#000000"/>
		<path id="249" d="M 253.9645 283.179 L 350.1615 283.179 C 357.0688 283.179 362.6677 277.5881 362.6677 270.6914 L 362.6677 174.6431 C 362.6677 167.7473 357.0688 162.1565 350.1615 162.1565 L 253.9645 162.1565 C 247.0571 162.1565 241.4583 167.7473 241.4583 174.6431 L 241.4583 270.6914 C 241.4583 277.5881 247.0571 283.179 253.9645 283.179 Z" fill="url(#gradient2)"/>
		<path id="157" d="M 541.3444 418 L 428.6511 418 C 420.5594 418 414 411.4402 414 403.3481 L 414 290.6514 C 414 282.5598 420.5594 276 428.6511 276 L 541.3444 276 C 549.4359 276 555.9962 282.5598 555.9962 290.6514 L 555.9962 403.3481 C 555.9962 411.4402 549.4359 418 541.3444 418 Z" fill="#007bff"/>
		<path id="156" d="M 541.3444 418 L 428.6511 418 C 420.5594 418 414 411.4402 414 403.3481 L 414 290.6514 C 414 282.5598 420.5594 276 428.6511 276 L 541.3444 276 C 549.4359 276 555.9962 282.5598 555.9962 290.6514 L 555.9962 403.3481 C 555.9962 411.4402 549.4359 418 541.3444 418 Z" fill="url(#gradient3)"/>
		<path id="155" opacity="0.2" d="M 547.3481 418 L 434.6538 418 C 426.5623 418 420.0038 411.4402 420.0038 403.3481 L 420.0038 290.6514 C 420.0038 282.5598 426.5623 276 434.6538 276 L 547.3481 276 C 555.4396 276 562 282.5598 562 290.6514 L 562 403.3481 C 562 411.4402 555.4396 418 547.3481 418 Z" fill="#ffffff"/>
		<path id="154" d="M 470.7771 328.676 C 471.4889 331.1243 469.833 335.1614 472.912 336.3926 C 478.9385 339.1555 485.314 341.1025 491.4709 343.5652 C 497.6576 341.1599 504.0323 339.2271 510.0448 336.4211 C 513.0364 335.2327 511.5402 331.3677 512.2373 328.9766 C 505.2817 330.9524 498.6306 334.1023 491.4567 335.219 C 484.2971 334.0161 477.7332 330.6519 470.7771 328.676 ZM 445.1307 320.7161 C 444.8407 338.9126 445.1456 357.1228 445.0004 375.3337 C 445.189 377.238 444.5359 379.772 446.6119 380.8884 C 455.1805 381.604 463.7916 380.9741 472.3745 381.1887 C 472.3745 382.95 472.3745 384.7107 472.3887 386.4717 C 468.8311 387.1873 463.2692 384.926 461.3525 388.791 C 461.2363 392.5134 465.6801 391.9407 468.2356 391.9983 C 485.1245 391.783 502.0283 392.2268 518.9176 391.7976 C 521.6333 391.9983 522.3303 388.5051 520.5009 386.9441 C 517.2334 386.4426 513.9078 386.5435 510.6113 386.4717 C 510.6113 384.7107 510.6113 382.95 510.6255 381.1748 C 519.2224 380.9741 527.8485 381.604 536.4312 380.8884 C 538.4351 379.7148 537.7821 377.2092 537.9996 375.3052 C 537.8544 357.1228 538.1593 338.9263 537.8693 320.7305 C 537.5933 316.1208 531.3926 318.3682 528.386 317.6523 C 528.2555 324.2522 528.6617 330.8662 528.2264 337.4519 C 528.0669 341.3745 524.4655 344.6243 520.5441 344.7251 C 517.5236 345.0259 515.2289 342.7061 512.8478 341.3169 C 505.6591 343.6228 498.9205 347.3301 491.4709 348.7622 C 483.9773 347.0012 476.8185 343.8796 469.7461 340.9023 C 464.4165 338.3689 465.7523 331.7827 465.4325 327.0437 C 460.6548 325.6699 456.5597 322.7202 455.3835 317.7383 C 452.1307 318.4399 445.5958 315.9055 445.1307 320.7161 ZM 457.1696 357.4954 C 460.7128 356.3218 464.62 356.8655 468.3228 356.894 C 470.0366 356.7224 472.3887 357.4521 472.229 359.5706 C 472.229 363.8945 473.3766 368.7913 471.1981 372.7424 C 466.348 373.3293 461.3667 373.4294 456.5597 372.5132 C 455.5437 367.76 455.7032 362.8354 456.2839 358.0537 L 457.1696 357.4954 ZM 478.9967 357.3093 C 492.2695 356.2642 505.6881 357.2234 519.0195 356.8369 C 521.9092 357.1802 526.2366 355.8489 527.3407 359.5139 C 526.411 363.3364 521.9092 361.9475 519.0195 362.3201 C 506.4283 362.1335 493.8237 362.4773 481.2474 362.1768 C 478.3721 362.7495 476.295 359.0554 478.9967 357.3093 ZM 478.6046 368.3899 C 482.2784 367.1157 486.301 367.7891 490.135 367.6453 C 501.7086 367.9175 513.3265 367.2305 524.8867 367.9321 C 527.762 367.6743 527.8052 373.3433 524.7994 372.7996 C 510.3495 373.3723 495.8276 373.0286 481.3488 372.9854 C 478.6337 373.5579 476.5568 370.4373 478.6046 368.3899 ZM 463.8499 315.1895 C 461.3234 315.3901 460.379 319.1985 462.9492 320.043 C 472.2874 323.8369 482.0026 326.6289 491.486 330.0647 C 500.1842 327.3022 508.8252 324.3953 517.4944 321.5605 C 517.5675 327.03 517.1022 332.5415 517.8141 337.9819 C 519.1062 340.5015 523.0997 339.3416 522.8096 336.5356 C 522.9691 329.7642 523.3762 322.8926 522.4758 316.1631 C 515.3451 312.7273 507.4742 311.1099 500.0679 308.304 C 496.3793 307.3447 492.517 304.9104 488.6829 306.5571 C 480.3757 309.363 472.0548 312.1265 463.8499 315.1895 Z" fill="#ffffff"/>
		<path id="147" d="M 92.4434 241.0774 C 95.0021 245.4707 100.6166 245.199 105.0232 245.5417 C 109.8986 245.3418 115.9539 245.6699 119.152 241.1917 C 113.9781 241.0774 108.9036 242.6179 103.744 242.2043 C 99.9628 241.8618 96.2389 241.1484 92.4434 241.0774 ZM 131.1633 235.1299 C 125.1362 236.8696 123.2744 243.5735 123.587 249.1785 C 132.8263 249.478 142.0656 249.3645 151.3048 249.2788 C 151.0914 245.7271 151.3901 241.7336 148.9592 238.8376 C 144.8657 233.4041 137.0906 233.9028 131.1633 235.1299 ZM 60.234 249.2927 C 69.4733 249.3499 78.7268 249.5066 87.9661 249.1646 C 87.6107 245.5557 87.8665 241.448 85.2798 238.553 C 81.2285 233.4751 73.9083 234.0168 68.1799 234.9871 C 61.8828 236.5276 59.6229 243.4448 60.234 249.2927 ZM 133.9066 217.6289 C 128.4055 220.125 128.3206 228.8396 133.6932 231.5356 C 138.6682 234.5874 145.7045 230.2798 145.3491 224.4609 C 145.4626 218.8555 138.7677 214.8188 133.9066 217.6289 ZM 70.0278 217.8428 C 65.0103 220.5242 64.9675 228.6111 69.9568 231.3496 C 74.9175 234.7446 82.323 230.3801 81.8539 224.418 C 81.9961 218.6555 74.8322 214.6621 70.0278 217.8428 ZM 80.9728 183.4399 C 73.6238 190.7566 68.0519 201.8538 70.8948 212.366 C 74.1641 207.6448 73.1692 201.4973 75.6709 196.4619 C 77.7745 190.999 82.1808 187.0488 85.8766 182.7126 C 85.0947 179.4604 82.1949 182.1563 80.9728 183.4399 ZM 123.2317 180.9871 C 127.5529 185.1084 132.3002 189.074 134.9015 194.5793 C 137.7017 199.5569 137.9432 205.3625 139.052 210.8394 C 140.2034 211.1387 142.3071 210.854 141.6533 209.071 C 141.5679 197.76 135.811 186.321 126.2876 180.1597 C 125.52 180.3586 123.9993 180.7871 123.2317 180.9871 ZM 98.8824 176.9504 C 93.126 178.9609 91.6334 185.4226 91.8466 190.8708 C 101.1284 191.0562 110.3962 191.0562 119.6781 190.8708 C 119.3228 187.1199 119.6212 182.7976 116.7783 179.9026 C 112.3575 174.939 104.7247 175.5239 98.8824 176.9504 ZM 101.4553 159.6772 C 96.4093 162.6587 96.978 171.1023 102.3934 173.3699 C 107.3545 175.9663 113.9497 171.7437 113.5944 166.124 C 113.8075 160.1479 106.26 156.1545 101.4553 159.6772 Z" fill="#ffffff"/>
		<path id="141" d="M 319.0642 249.5405 C 314.8745 251.1545 314.5792 255.9961 314.5792 259.8274 C 322.0137 260.0613 329.4722 260.0493 336.9186 259.8401 C 336.9552 256.0083 336.6479 251.1423 332.4702 249.5405 C 328.1329 248.4692 323.3895 248.4692 319.0642 249.5405 ZM 293.26 249.5405 C 289.0577 251.1545 288.7139 256.0083 288.8369 259.8521 C 296.2461 260.0493 303.668 260.0493 311.0771 259.8521 C 311.1881 255.9961 310.8192 251.1177 306.6168 249.5159 C 302.3042 248.4812 297.5607 248.4692 293.26 249.5405 ZM 267.5542 249.5039 C 263.2781 251.0684 262.9343 255.9714 263.0081 259.8401 C 270.4545 260.0493 277.9004 260.0613 285.3468 259.8274 C 285.3221 256.0083 285.0642 251.167 280.8865 249.5532 C 276.5731 248.4565 271.8549 248.4812 267.5542 249.5039 ZM 319.3347 246.51 C 323.6108 246.4119 327.8995 246.4119 332.1876 246.51 C 332.2123 242.605 330.5042 237.6523 325.8104 237.8005 C 321.0675 237.5784 319.2729 242.5681 319.3347 246.51 ZM 293.5179 246.5227 C 297.8187 246.436 302.1194 246.4241 306.42 246.3501 C 306.3342 242.5061 304.6508 237.6523 300.0182 237.8005 C 295.2633 237.5537 293.4568 242.5803 293.5179 246.5227 ZM 267.7264 246.51 C 272.0024 246.4119 276.2911 246.4119 280.5792 246.51 C 280.6405 242.5681 278.8466 237.5911 274.1156 237.8005 C 269.422 237.6404 267.6898 242.605 267.7264 246.51 ZM 278.1956 203.54 C 276.647 209.3552 280.2355 214.7017 281.9185 220.0481 C 277.2614 220.3313 273.4893 223.2266 272.4447 227.8462 C 281.7715 228.0063 291.0977 228.0063 300.4364 227.8462 C 299.3793 223.239 295.5951 220.344 290.9626 220.0605 C 292.621 214.7017 296.2461 209.3552 294.6736 203.5527 C 292.5472 196.4197 280.3333 196.4197 278.1956 203.54 ZM 281.0707 211.1658 C 284.364 210.5251 287.5955 209.6384 290.7778 208.5911 C 291.8224 211.6338 291.3436 215.9829 287.5835 216.7222 C 283.8972 217.7935 281.7468 214.1963 281.0707 211.1658 ZM 283.3932 219.1733 C 285.4086 219.1487 287.4479 219.1487 289.4752 219.1614 C 288.5789 220.418 288.7505 223.6946 286.4159 223.0911 C 284.0934 223.7317 284.3268 220.3806 283.3932 219.1733 ZM 263.0566 195.853 C 263.2415 207.8271 262.8851 219.8267 263.2043 231.8008 C 263.0566 234.314 265.7236 235.6079 267.9106 235.3118 L 325.835 235.3611 C 327.9362 235.3611 330.8977 235.3979 331.6471 232.8848 C 332.2734 227.1563 331.77 221.3787 331.8931 215.6255 L 326.99 215.6255 C 326.99 220.5166 327.0145 225.4197 326.8796 230.3101 C 307.2925 230.4702 287.694 230.4702 268.1194 230.3101 C 267.9232 218.0527 267.9352 205.7947 268.1074 193.5493 C 277.0771 193.3521 286.0476 193.4873 295.0173 193.4507 C 295.042 191.8 295.0785 190.1614 295.1277 188.5229 C 285.261 188.7202 275.3696 188.1409 265.5269 188.7695 C 262.5408 189.7549 263.1797 193.4138 263.0566 195.853 ZM 297.7574 188.5349 C 297.2169 195.5325 297.4503 202.5916 297.6099 209.6011 C 297.389 212.3484 300.473 212.8289 302.3408 213.6917 C 302.4392 216.1675 302.525 218.644 302.7097 221.1199 C 306.2731 218.8286 309.4919 216.0569 312.5885 213.1863 C 320.0721 212.7549 327.7766 213.9868 335.1119 212.5576 C 338.4911 208.9111 336.1566 202.998 336.8568 198.4397 C 336.1812 194.5718 338.6514 188.5349 334.3872 186.3176 C 324.5444 185.6523 314.6411 186.281 304.7737 186.0222 C 302.3534 186.1577 298.6425 185.5044 297.7574 188.5349 ZM 311.2247 191.812 C 315.7223 193.9558 319.9365 196.6411 323.9547 199.6104 C 319.9365 202.5547 315.7343 205.2527 311.2494 207.4207 C 310.9176 202.2222 310.9176 197.011 311.2247 191.812 Z" fill="#ffffff"/>
		<path id="140" d="M 176.4302 35.46 C 174.2402 36.3198 173.3701 38.7598 173.5098 40.96 C 173.4502 52.3198 173.54 63.6899 173.4702 75.0498 C 173.5498 77.0801 173.3198 79.5 174.96 81.04 C 176.5 82.6602 178.8999 82.4399 180.9399 82.5298 C 197.9502 82.4399 214.9702 82.5698 231.98 82.4702 C 235.1001 82.79 237.8301 80.0298 237.4702 76.9102 C 237.5498 68.2598 237.5098 59.6001 237.4902 50.9399 C 237.77 48.2598 236.04 45.2402 233.1401 45.1299 C 223.75 44.6499 214.3198 45.3799 204.9502 44.8198 C 201.9302 42.54 201.9199 37.5298 198.48 35.52 C 195.0898 34.52 191.4702 35.1401 187.9902 34.9902 C 184.1401 35.1499 180.1899 34.54 176.4302 35.46 ZM 201 52.0498 C 203.96 51.6899 206.98 51.6699 209.9502 52.0498 C 211.9102 53.29 210.8198 56.0898 211.23 58.02 C 213.1899 58.2598 215.4399 57.73 217.1602 58.9199 C 217.5098 62.21 217.7002 65.6099 216.9702 68.8701 C 215.1201 69.4902 213.1499 69.3398 211.2402 69.4702 C 210.79 71.5298 212.1201 75.6802 208.8501 75.5801 C 205.98 75.6001 202.8599 76.2002 200.1699 74.9702 C 199.8901 73.1401 199.8501 71.2998 199.7598 69.48 C 197.8701 69.3799 195.98 69.3599 194.1201 69.02 C 193.23 65.75 193.5098 62.27 193.8198 58.9399 C 195.5298 57.71 197.7998 58.2598 199.77 58.02 C 200.1499 56.0801 199.1401 53.3799 201 52.0498 ZM 203.75 55.6299 C 203.4302 57.5801 204.1201 59.9302 202.8198 61.6099 C 201.02 61.8999 199.1899 61.8901 197.3901 62 L 197.3599 65.5098 C 199.3198 65.8301 201.7798 65.0698 203.3999 66.54 C 203.6802 68.2998 203.6499 70.0801 203.73 71.8701 L 207.2598 71.8701 C 207.4399 69.8999 207.1001 67.7798 207.98 65.9502 C 209.8398 65.5801 211.7402 65.5898 213.6299 65.5 L 213.6201 61.9902 C 211.8198 61.8901 210.02 61.9102 208.25 61.6299 C 206.8101 60.0098 207.5801 57.5801 207.2598 55.6299 L 203.75 55.6299 ZM 232.46 33.6401 C 232.3901 36.1099 232.3701 38.5801 232.3701 41.0498 C 234.2002 41.5298 236.0098 42.02 237.8501 42.54 C 237.79 38.7002 235.9502 35.3301 232.46 33.6401 ZM 216.1299 19.6099 C 216.1201 23.3901 216.1099 27.1802 216.1602 30.9702 C 219.9399 31.0098 223.73 31 227.5098 30.9902 L 216.1299 19.6099 ZM 182.8101 19 C 181.8999 23.0098 182.5298 27.1899 182.3901 31.27 C 187.7598 31.4399 193.1899 30.8599 198.5298 31.5801 C 203.1699 32.5898 204.7598 37.5601 206.7002 41.27 L 228.6201 41.27 L 228.6201 34.7598 C 224.4399 34.6899 220.25 34.9902 216.0898 34.6201 C 214.1802 34.4702 212.5601 32.77 212.4902 30.8799 C 212.1802 26.7598 212.4302 22.6299 212.3901 18.5098 C 203.8999 18.4902 195.4199 18.52 186.9399 18.4702 C 185.5498 18.52 184.0898 18.3901 182.8101 19 Z" fill="#ffffff"/>
		<path id="139" opacity="0.2" d="M 248.2502 101.0417 L 168.4437 101.0417 C 162.7135 101.0417 158.0676 96.4036 158.0676 90.6824 L 158.0676 10.9993 C 158.0676 5.2778 162.7135 0.6392 168.4437 0.6392 L 248.2502 0.6392 C 253.9805 0.6392 258.6257 5.2778 258.6257 10.9993 L 258.6257 90.6824 C 258.6257 96.4036 253.9805 101.0417 248.2502 101.0417 Z" fill="#ffffff"/>
		<path id="78" d="M 445.0024 47.2095 C 444.7678 52.0439 445.0249 56.8938 444.9266 61.7358 C 443.5573 62.4404 441.1816 62.5977 441.1816 64.5991 C 440.9094 69.3135 440.9851 74.0586 441.1362 78.7734 C 440.947 80.9473 443.3984 81.3516 444.9266 82.0342 C 445.1534 85.6694 444.2004 89.5747 445.8118 93 L 479.3716 93 C 480.4536 89.4395 480.0299 85.6846 480.0753 82.0264 C 481.5658 81.3516 484.0168 80.9844 483.8579 78.8486 C 484.0168 74.0889 484.0925 69.2988 483.8125 64.5537 C 483.79 62.6128 481.4598 62.4331 480.1281 61.7432 C 479.9238 59.4121 480.673 56.624 478.8345 54.7725 C 476.0204 51.4817 473.0548 48.3262 470.2252 45.0432 C 462.4633 45.1033 454.6859 44.863 446.9314 45.1255 C 445.6606 44.9231 444.9341 46.0774 445.0024 47.2095 ZM 446.8406 46.917 L 468.8333 46.917 C 468.8861 50.2825 468.6139 53.6704 468.9921 57.0286 C 471.8442 58.0405 475.1427 57.2458 478.1614 57.4709 L 478.1614 62.1855 L 446.8406 62.1855 L 446.8406 46.917 ZM 443.9961 65.1992 C 445.3425 65.2139 446.6968 65.2441 448.051 65.2813 C 448.9362 68.3018 449.7458 71.3452 450.457 74.4185 C 451.259 71.3154 452.1665 68.2422 453.1807 65.2061 C 454.4894 65.2139 455.8132 65.229 457.1295 65.251 C 457.3567 69.6362 457.606 74.0283 457.8557 78.4287 C 456.8723 78.4209 455.8887 78.4209 454.9053 78.4287 C 454.769 74.958 454.6859 71.4805 454.5197 68.0098 C 453.5286 71.4277 452.5071 74.8306 451.4252 78.2188 L 449.0798 78.2266 C 448.074 74.8379 447.2114 71.4131 446.5002 67.957 C 446.2202 71.4429 446.084 74.9355 445.9329 78.4287 C 444.9946 78.4209 444.0641 78.4209 443.1335 78.4287 C 443.4058 74.0137 443.7009 69.6064 443.9961 65.1992 ZM 460.1859 65.334 C 462.6749 65.2964 465.3453 64.7715 467.7136 65.791 C 470.5051 67.1401 470.278 71.5625 467.6755 72.9863 C 466.2686 73.6538 464.6572 73.6538 463.144 73.9014 C 463.1515 75.4004 463.1593 76.9067 463.1744 78.4209 C 462.4253 78.4287 460.9274 78.4287 460.1786 78.4287 C 460.1708 74.0664 460.1635 69.6963 460.1859 65.334 ZM 475.6343 65.7383 C 476.8751 65.7085 478.116 65.6787 479.3641 65.6563 L 479.3716 73.1216 C 479.7499 73.1367 480.5215 73.167 480.9076 73.189 C 480.9149 73.7139 480.9379 74.7783 480.953 75.3105 L 479.3641 75.4526 L 479.3641 78.4287 C 478.4259 78.4287 477.488 78.4287 476.5575 78.4434 C 476.5194 77.4165 476.4968 76.3975 476.4744 75.3779 C 474.4844 75.3853 472.4948 75.3779 470.5126 75.333 C 471.292 71.7051 473.8641 68.9014 475.6343 65.7383 ZM 446.8406 81.5469 L 478.1614 81.5469 L 478.1614 90.6089 L 446.8406 90.6089 L 446.8406 81.5469 ZM 476.4363 68.1523 C 475.5513 69.8457 474.6129 71.5176 473.6525 73.1738 C 474.6129 73.1592 475.5664 73.1592 476.5345 73.1592 L 476.4363 68.1523 ZM 463.1818 67.2451 C 463.1666 68.6914 463.1593 70.1533 463.1666 71.6152 C 464.6268 71.3525 467.116 71.1729 466.7225 69.0518 C 466.6243 67.29 464.4075 67.5898 463.1818 67.2451 Z" fill="#ffffff"/>
		<path id="77" d="M 228.5543 433 L 133.3743 433 C 126.54 433 121 427.4565 121 420.6182 L 121 325.3813 C 121 318.5435 126.54 313 133.3743 313 L 228.5543 313 C 235.3884 313 240.9292 318.5435 240.9292 325.3813 L 240.9292 420.6182 C 240.9292 427.4565 235.3884 433 228.5543 433 Z" fill="#007bff"/>
		<path id="76" d="M 228.5543 433 L 133.3743 433 C 126.54 433 121 427.4565 121 420.6182 L 121 325.3813 C 121 318.5435 126.54 313 133.3743 313 L 228.5543 313 C 235.3884 313 240.9292 318.5435 240.9292 325.3813 L 240.9292 420.6182 C 240.9292 427.4565 235.3884 433 228.5543 433 Z" fill="url(#gradient4)"/>
		<path id="75" opacity="0.2" d="M 233.6251 433 L 138.4441 433 C 131.61 433 126.0708 427.4565 126.0708 420.6182 L 126.0708 325.3813 C 126.0708 318.5435 131.61 313 138.4441 313 L 233.6251 313 C 240.4591 313 246 318.5435 246 325.3813 L 246 420.6182 C 246 427.4565 240.4591 433 233.6251 433 Z" fill="#ffffff"/>
		<path id="57" d="M 190.7922 404.6582 C 189.5544 404.8044 188.7269 405.9546 188.4923 407.1008 C 188.015 409.2524 188.3201 411.4854 188.7321 413.6218 C 189.0735 415.595 189.6285 417.5232 190.2251 419.4346 L 194.99 419.1614 C 194.9263 416.3201 194.871 413.4773 194.709 410.6396 C 194.5985 409.397 194.5419 408.1426 194.2643 406.9221 C 194.1194 406.1863 193.9039 405.3787 193.2782 404.9006 C 192.5505 404.4023 191.6128 404.5879 190.7922 404.6582 ZM 176.7284 402.967 C 176.2799 403.3489 176.2128 403.9746 176.2386 404.5244 C 176.4818 409.4968 176.6731 414.4707 177.0542 419.4346 C 178.5039 419.6218 179.9554 419.7886 181.4036 420 L 181.5364 420 C 183.0931 417.2156 184.4757 414.3179 185.4257 411.2688 C 185.8773 409.7615 186.2393 408.1663 186.0066 406.5884 C 185.8739 405.8135 185.4878 405.0005 184.7256 404.6704 C 182.9 403.7646 180.9968 402.9434 178.9746 402.5996 C 178.2246 402.4929 177.3507 402.4619 176.7284 402.967 ZM 183.0413 393.1499 C 181.5156 393.2888 179.9901 393.5762 178.5643 394.1501 C 177.4541 394.6707 176.2645 395.4045 175.8784 396.6404 C 175.5664 397.6528 176.0852 398.6702 176.6957 399.4556 C 177.7782 400.8997 179.5453 401.5767 181.2037 402.125 C 184.3291 403.0293 187.6804 403.0447 190.856 402.3931 C 192.0524 402.1113 193.3781 401.8157 194.2158 400.8413 C 194.7297 400.2585 194.7814 399.4233 194.5642 398.7063 C 194.1729 397.407 193.292 396.2778 192.1851 395.4993 C 189.6095 393.5332 186.2324 392.811 183.0413 393.1499 ZM 160.8146 382.8184 C 160.1062 383.3613 159.4165 383.9941 159.0493 384.8223 C 158.7942 385.4102 158.989 386.1113 159.4578 386.5342 C 160.256 387.2854 161.3749 387.5518 162.4299 387.7151 C 162.6454 387.7185 162.7815 387.9043 162.9316 388.0313 C 164.709 389.8152 166.4915 391.5957 168.2827 393.3696 C 168.8291 393.8184 168.743 394.5952 169.0242 395.1917 C 169.3601 396.1162 170.1102 397.1594 171.2186 397.0684 C 172.1494 397.041 172.7598 396.2676 173.3752 395.6743 C 174.0166 394.968 174.6941 394.1689 174.8198 393.1909 C 174.8716 392.2886 173.9236 391.7351 173.1271 391.658 C 172.2186 391.6045 171.4375 391.0957 170.7065 390.6008 C 168.5671 389.0881 166.7915 387.1443 165.0176 385.2349 C 165.0745 384.3032 165.0969 383.2839 164.5487 382.4797 C 164.166 381.916 163.4213 381.7493 162.7799 381.8472 C 162.0231 381.9055 161.4059 382.3921 160.8146 382.8184 ZM 151.7552 371.9026 C 150.8105 372.4438 149.7625 373.0266 149.2831 374.0544 C 148.9918 374.6304 149.4039 375.304 149.9296 375.5684 C 150.6606 375.8865 151.4657 376.002 152.2604 375.998 C 153.4292 377.4299 154.5929 378.8687 155.7513 380.3088 C 155.6704 381.1306 155.5859 382.021 155.9753 382.7837 C 156.2548 383.334 156.9496 383.4785 157.5063 383.3184 C 158.7717 382.9695 159.9097 382.1667 160.6404 381.0771 C 160.856 380.7488 161.0249 380.3552 160.9801 379.9565 C 160.7491 379.3018 159.9492 379.1831 159.3458 379.123 C 158.9786 379.0354 158.4752 379.197 158.2303 378.834 C 157.0392 377.3696 155.8325 375.9175 154.6429 374.4512 C 154.91 373.7073 155.2048 372.8875 154.9376 372.0984 C 154.8325 371.7461 154.5032 371.5056 154.1552 371.4246 C 153.3293 371.2581 152.4673 371.4729 151.7552 371.9026 ZM 172.5376 369.8279 C 172.3875 371.1755 173.0253 372.4524 173.613 373.6248 C 175.0734 376.2029 175.844 379.104 176.3113 382.0103 C 176.5627 383.7688 176.7058 385.5598 176.4922 387.3301 C 176.3767 388.2683 175.8818 389.1416 175.9282 390.1023 C 175.9767 390.8035 176.5938 391.2935 177.223 391.4929 C 178.9039 392.0549 180.6935 391.7661 182.4277 391.7749 C 184.7947 391.8555 187.1667 391.9622 189.5114 392.3059 C 190.7594 392.459 191.8525 393.1721 193.1024 393.3218 C 193.947 393.4368 195.0072 393.4473 195.5743 392.6926 C 196.1761 391.8916 195.9106 390.845 196.0261 389.9238 C 196.3984 386.6682 197.2656 383.3872 199.1033 380.6321 C 199.912 379.4395 201.129 378.5747 201.8425 377.3098 C 202.2012 376.7202 202.5477 375.916 202.1151 375.2764 C 201.6323 374.6526 200.7755 374.5476 200.0413 374.4773 C 199.1499 374.4429 198.0809 374.3948 197.4396 375.1353 C 196.5657 376.1753 196.5519 377.6274 196.5364 378.915 C 196.5571 380.3708 196.2675 381.8062 195.8779 383.2014 C 195.4243 384.7676 194.89 386.3381 194.0073 387.7219 C 193.7195 388.167 193.354 388.6655 192.7903 388.7532 C 192.3662 388.7617 192.068 388.375 191.9282 388.0176 C 191.5817 387.0825 191.6851 386.0566 191.7955 385.0886 C 192.2714 381.9365 193.4884 378.9629 194.7642 376.0618 C 195.0607 375.3865 195.6245 374.8848 196.002 374.2605 C 196.276 373.8274 196.5139 373.2346 196.1932 372.762 C 195.6503 371.9832 194.6367 371.8457 193.7866 371.6069 C 193.0093 371.4385 192.2231 371.1035 191.4163 371.2441 C 190.7802 371.344 190.4509 371.9817 190.3527 372.5571 C 190.0354 374.4512 190.6216 376.3335 190.6112 378.2275 C 190.6008 380.3501 190.2491 382.4746 189.5493 384.4802 C 189.0544 385.8398 188.377 387.1907 187.2719 388.1582 C 186.2703 386.8557 186.0824 385.1523 185.9169 383.5728 C 185.6808 380.73 185.8756 377.8699 186.1807 375.0427 C 186.6357 374.374 187.2151 373.7898 187.5857 373.0627 C 188.0391 372.2051 188.5098 371.1687 188.1063 370.2012 C 187.7305 369.3364 186.7615 369.0356 185.9548 368.7161 C 184.8981 368.3259 183.5826 368.0938 182.6017 368.7847 C 181.5088 369.7129 181.3657 371.342 181.6847 372.6553 C 181.8622 373.5474 182.3898 374.2915 182.9104 375.0137 C 183.157 377.4507 183.1948 379.9102 183.1689 382.3574 C 183.0587 384.123 183.1189 385.9807 182.3708 387.6238 C 182.1656 388.1309 181.626 388.3577 181.1174 388.1655 C 179.8262 385.2007 178.7747 382.1084 178.2747 378.9082 C 178.0178 377.4368 177.9471 375.9209 178.1626 374.4412 C 178.2729 373.4392 178.8368 372.5471 178.866 371.5313 C 178.9746 370.6477 178.6936 369.6716 177.9454 369.1335 C 176.9542 368.4187 175.668 368.4355 174.4993 368.4272 C 173.6423 368.4065 172.6271 368.8774 172.5376 369.8279 ZM 146.4697 364.9209 C 145.9301 365.4124 145.887 366.3044 146.1801 366.939 C 146.8853 368.3052 147.5059 369.7764 148.6694 370.8318 C 149.1608 371.282 149.8348 371.6858 150.5261 371.4951 C 151.5 371.1514 152.0157 369.8279 151.4243 368.9497 C 150.8588 368.0454 150.0675 367.3169 149.3486 366.5383 C 148.7125 365.8989 148.1161 365.1582 147.2542 364.8162 C 146.9939 364.6855 146.6921 364.7524 146.4697 364.9209 ZM 204.0562 363.5288 C 203.5977 364.3965 203.9357 365.4177 203.7045 366.3389 C 203.4357 367.4578 202.9805 368.563 202.2202 369.4412 C 201.4685 370.127 200.3773 370.2886 199.6187 370.9641 C 199.2429 371.3027 199.3757 371.8784 199.7032 372.2 C 200.6757 373.2173 202.0115 373.7656 203.277 374.3262 C 203.5977 374.135 204.0079 373.9736 204.1287 373.5852 C 204.3423 372.8149 203.6147 372.0642 203.9476 371.3079 C 204.2751 370.5449 204.8665 369.9414 205.3508 369.2795 C 206.0266 368.4221 206.6179 367.4199 207.6316 366.9163 C 208.1074 366.6465 208.7764 366.3542 208.7644 365.7097 C 208.6573 365.1309 208.1989 364.6924 207.7333 364.3674 C 206.9438 363.8279 206.1129 363.3054 205.1768 363.063 C 204.7476 362.9495 204.2579 363.123 204.0562 363.5288 ZM 195.0055 357.0764 C 194.4677 357.324 194.0349 357.8586 194.0281 358.4668 C 194.009 359.1873 194.459 359.7939 194.8452 360.3628 C 194.7952 361.5215 194.6848 362.6777 194.5159 363.8245 C 194.3365 364.749 194.1608 365.7285 193.5936 366.5073 C 193.1351 366.9182 192.4266 367.0369 192.1265 367.6211 C 191.8093 368.1179 191.9904 368.7659 192.4075 369.1423 C 193.2281 369.9329 194.3625 370.5137 195.5297 370.3967 C 196.3259 370.3262 197.0208 369.5857 196.9656 368.7793 C 196.8862 368.0439 196.3623 367.4512 196.2382 366.7273 C 196.1055 365.8662 196.252 364.9966 196.3778 364.144 C 196.5122 363.2349 196.7622 362.3274 197.2277 361.5298 C 197.7585 360.6018 198.9585 360.1772 199.2308 359.0823 C 199.3792 358.689 199.2308 358.2676 198.9636 357.9668 C 198.0741 356.7844 196.3191 356.4595 195.0055 357.0764 ZM 208.8695 354.4243 C 208.2695 354.6169 208.3179 355.3562 208.3884 355.8545 C 208.5642 357.0078 208.4435 358.2317 207.8816 359.2698 C 207.4506 360.0413 206.5162 360.2957 205.968 360.9541 C 205.6215 361.4199 206.1439 361.8909 206.5266 362.1177 C 207.2472 362.5044 208.0367 362.7656 208.8263 362.9771 C 209.2109 363.1577 209.559 362.7468 209.6572 362.4116 C 209.7177 361.7551 209.0039 361.2034 209.3004 360.5415 C 209.6882 359.5928 210.2383 358.7146 210.7365 357.8188 C 211.083 357.1677 211.8467 356.8843 212.1864 356.231 C 212.2847 355.5796 211.6069 355.2151 211.1106 354.978 C 210.4054 354.6855 209.6521 354.3027 208.8695 354.4243 ZM 173.3838 353.7715 C 172.5667 353.9294 171.7495 354.1357 170.9927 354.4863 C 170.5875 354.6565 170.3497 355.1191 170.4531 355.5449 C 170.5791 356.114 170.991 356.5471 171.3997 356.9355 C 171.8444 357.3379 172.1082 357.8928 172.3047 358.448 C 172.746 359.8403 173.0115 361.2944 172.9908 362.7571 C 172.92 363.998 171.9668 364.988 171.8599 366.2219 C 171.7994 366.8423 172.3926 367.2654 172.9581 367.2996 C 174.4354 367.439 175.8904 367.0264 177.2886 366.5967 C 178.011 366.5142 178.1696 365.5808 177.9419 365.0188 C 177.6006 364.3469 176.811 364.0977 176.3335 363.5425 C 175.8818 362.7295 175.9353 361.7637 175.8699 360.8647 C 175.8422 359.6033 175.6406 358.3398 175.7972 357.0818 C 175.8767 356.4097 176.2145 355.8066 176.3508 355.1482 C 176.4388 354.7202 176.3524 354.1873 175.9438 353.9517 C 175.1647 353.51 174.2268 353.6477 173.3838 353.7715 ZM 184.2465 353.438 C 183.6034 353.5806 182.8138 353.5461 182.338 354.0686 C 181.8967 354.7324 182.3639 355.5176 182.788 356.0591 C 183.2568 356.585 183.5172 357.2537 183.6362 357.9412 C 183.8638 359.2783 183.9103 360.6448 183.7638 361.9922 C 183.6206 363.3345 182.3967 364.2385 182.1415 365.5413 C 182.0328 366.1448 182.5829 366.6035 183.1276 366.7085 C 184.6067 367.0249 186.1377 366.8047 187.6099 366.5449 C 188.1908 366.5227 188.3596 365.8218 188.3889 365.3523 C 188.2925 364.2883 186.915 363.9688 186.7943 362.9153 C 186.6497 361.9438 186.8324 360.9663 186.8909 359.9949 C 187.0063 358.7971 186.9668 357.5476 187.4321 356.4131 C 187.7097 355.7498 188.2511 355.1138 188.1133 354.3491 C 188.0184 353.8503 187.4943 353.627 187.0616 353.4897 C 186.1428 353.2559 185.1774 353.3179 184.2465 353.438 ZM 197.8173 346.998 C 197.6708 347.8125 198.1914 348.5532 198.293 349.3474 C 198.5034 350.6035 198.5034 352.1008 197.5327 353.0615 C 197.1844 353.5308 196.495 354.0256 196.7554 354.679 C 197.6224 355.6348 199.0826 355.4421 200.2513 355.6155 C 200.4308 355.3354 200.722 355.05 200.6342 354.6855 C 200.4772 354.0723 199.786 353.6509 199.8912 352.9653 C 200.0221 351.946 200.3738 350.968 200.6169 349.9695 C 200.7961 349.0896 201.5186 348.4846 201.8236 347.658 C 201.4944 346.709 200.3722 346.6094 199.524 346.4736 C 198.9429 346.4153 198.0465 346.2878 197.8173 346.998 ZM 211.1088 346.1609 C 210.733 346.2554 210.4537 346.5664 210.3486 346.9309 C 210.0382 347.9434 210.4331 349.0071 210.2366 350.0281 C 209.8883 350.5161 209.2332 350.7876 209.1246 351.4355 C 208.8695 351.9597 209.2832 352.5081 209.7727 352.6921 C 210.5021 352.9807 211.3243 352.9688 212.0846 352.8037 C 212.5051 352.709 212.9983 352.4377 213 351.946 C 212.9897 351.262 212.531 350.6968 212.3966 350.0415 C 212.2242 349.0688 212.7568 348.1133 212.5569 347.1458 C 212.4243 346.52 211.7828 345.9031 211.1088 346.1609 ZM 169.1637 341.8245 C 168.8499 342.5376 169.3083 343.2598 169.6757 343.8525 C 170.6152 345.1538 171.1185 346.7402 171.2238 348.3315 C 171.3135 349.5037 170.5117 350.4785 170.3359 351.5991 C 170.2532 352.1074 170.6428 352.5718 171.1289 352.6765 C 172.3513 352.9634 173.6062 352.6626 174.8027 352.3879 C 174.9061 352.0303 175.0819 351.6521 174.9579 351.2756 C 174.7131 350.4973 173.751 350.2222 173.5234 349.4333 C 173.2943 348.6309 173.3442 347.7832 173.2993 346.9565 C 173.27 345.7292 173.0632 344.449 173.5234 343.2715 C 173.7045 342.7422 173.9493 342.0566 173.5199 341.5786 C 172.8081 340.9202 171.7495 341.0837 170.8634 341.1438 C 170.2739 341.2502 169.5428 341.302 169.1637 341.8245 ZM 184.9739 340.2051 C 184.4825 340.8757 184.8257 341.7419 185.0325 342.4517 C 185.5376 343.8835 185.548 345.4578 185.2687 346.9377 C 185.0393 348.0703 184.0481 348.8027 183.5535 349.801 C 183.3068 350.2651 183.5033 350.8633 183.9655 351.1057 C 185.0687 351.7246 186.3755 351.7725 187.6099 351.824 C 187.8149 351.4924 188.1045 351.1572 188.0598 350.7412 C 187.9803 349.9094 187.0875 349.3613 187.1771 348.488 C 187.2306 347.5374 187.546 346.6316 187.7408 345.707 C 187.9823 344.6604 188.177 343.5518 188.8511 342.675 C 189.1837 342.2078 189.5889 341.5801 189.2527 341.0098 C 188.6959 340.2139 187.6443 340.1074 186.765 339.9338 C 186.179 339.9043 185.4187 339.7102 184.9739 340.2051 ZM 200.6014 338.6018 C 200.2255 338.6721 199.912 338.9387 199.7809 339.2961 C 199.4084 340.3186 199.8101 341.4121 199.6445 342.4587 C 199.3638 342.9604 198.6948 343.1804 198.5516 343.7837 C 198.3311 344.21 198.4637 344.748 198.8774 345.0007 C 199.6135 345.4561 200.5427 345.4458 201.3702 345.2947 C 201.7926 345.2087 202.3029 345.0007 202.3806 344.5212 C 202.4597 343.7271 201.8151 343.0913 201.7668 342.3159 C 201.6892 341.3928 202.1615 340.4905 201.9392 339.5728 C 201.8048 338.9971 201.2341 338.428 200.6014 338.6018 ZM 170.0997 333.126 C 169.748 333.2703 169.4878 333.5898 169.4308 333.9663 C 169.2429 335.0562 169.8895 336.0698 169.8618 337.1475 C 169.6654 337.5686 169.2654 337.8625 169.0947 338.2976 C 168.9396 338.748 168.9827 339.3496 169.4379 339.6123 C 170.198 340.1211 171.1926 340.0298 172.0496 339.8613 C 172.6649 339.7275 173.4236 339.4182 173.5251 338.7134 C 173.3906 337.7715 172.1805 337.5173 171.946 336.6184 C 171.6426 335.6147 172.0874 334.4304 171.4255 333.5332 C 171.1548 333.1018 170.5669 332.9058 170.0997 333.126 ZM 187.4857 332 C 187.1633 332.127 186.803 332.2715 186.6616 332.6169 C 186.1909 333.6704 186.6704 334.8428 186.4548 335.9343 C 186.0773 336.407 185.467 336.7246 185.3308 337.3574 C 185.105 337.8748 185.5049 338.4058 185.9824 338.5879 C 186.7565 338.8938 187.6375 338.8804 188.4355 338.667 C 188.8149 338.5623 189.22 338.2803 189.22 337.8472 C 189.1873 337.0066 188.5166 336.3105 188.5925 335.4497 C 188.6096 334.6089 188.9788 333.7637 188.7407 332.928 C 188.6287 332.4849 188.2494 332.196 187.8599 332 L 187.4857 332 Z" fill="#ffffff"/>
	</g>
</svg>