<?xml version="1.0" standalone="no"?>
<!-- Generator: Adobe Fireworks 10, Export SVG Extension by Aaron Beall (http://fireworks.abeall.com) . Version: 0.6.1  -->
<!DOCTYPE svg PUBLIC "-//W3C//DTD SVG 1.1//EN" "http://www.w3.org/Graphics/SVG/1.1/DTD/svg11.dtd">
<svg id="Untitled-Page%201" viewBox="0 0 590 521" style="background-color:#ffffff00" version="1.1"
	xmlns="http://www.w3.org/2000/svg" xmlns:xlink="http://www.w3.org/1999/xlink" xml:space="preserve"
	x="0px" y="0px" width="590px" height="521px"
>
	<defs>
		<linearGradient id="gradient1" x1="50%" y1="0%" x2="50%" y2="100%">
			<stop stop-color="#5936ff" stop-opacity="1" offset="0%"/>
			<stop stop-color="#6288f7" stop-opacity="1" offset="100%"/>
		</linearGradient>
		<linearGradient id="gradient2" x1="10.3673%" y1="-11.4685%" x2="89.6331%" y2="111.4691%">
			<stop stop-color="#35c9e2" stop-opacity="0.498" offset="1%"/>
			<stop stop-color="#35e6bb" stop-opacity="1" offset="99%"/>
		</linearGradient>
		<linearGradient id="gradient3" x1="3.8015%" y1="3.8011%" x2="96.1996%" y2="96.1982%">
			<stop stop-color="#35c9e2" stop-opacity="0.898" offset="0.5556%"/>
			<stop stop-color="#35e6bb" stop-opacity="1" offset="98.8889%"/>
		</linearGradient>
		<linearGradient id="gradient4" x1="10.7462%" y1="-6.817%" x2="89.2549%" y2="106.819%">
			<stop stop-color="#35c9e2" stop-opacity="0.498" offset="1%"/>
			<stop stop-color="#35e6bb" stop-opacity="1" offset="99%"/>
		</linearGradient>
		<linearGradient id="gradient5" x1="3.8022%" y1="3.8018%" x2="96.1993%" y2="96.1994%">
			<stop stop-color="#35c9e2" stop-opacity="1" offset="0.5556%"/>
			<stop stop-color="#35e6bb" stop-opacity="1" offset="98.8889%"/>
		</linearGradient>
		<linearGradient id="gradient6" x1="10.3673%" y1="-11.468%" x2="89.6332%" y2="111.4691%">
			<stop stop-color="#35c9e2" stop-opacity="0.498" offset="1%"/>
			<stop stop-color="#35e6bb" stop-opacity="1" offset="99%"/>
		</linearGradient>
		<linearGradient id="gradient7" x1="3.8015%" y1="3.8011%" x2="96.1996%" y2="96.1982%">
			<stop stop-color="#35c9e2" stop-opacity="0.898" offset="0.5556%"/>
			<stop stop-color="#35e6bb" stop-opacity="1" offset="98.8889%"/>
		</linearGradient>
	</defs>
	<path id="492" d="M 125 271 C 194.0356 271 250 326.9648 250 396 C 250 465.0356 194.0356 521 125 521 C 55.9644 521 0 465.0356 0 396 C 0 326.9648 55.9644 271 125 271 Z" fill="#f1ebfd"/>
	<path id="491" d="M 77.7324 84.7119 C 77.7324 80.8174 78.1262 77.0146 78.8738 73.3408 L 59.8511 62.3584 L 77.6671 31.5039 L 96.6316 42.4517 C 102.3718 37.3101 109.1655 33.3286 116.6497 30.855 L 116.6497 9 L 152.2817 9 L 152.2817 30.855 C 155.6097 31.9551 158.8025 33.3467 161.8257 35.0146 C 162.1863 35.2114 162.5376 35.4238 162.8936 35.6279 C 163.2495 35.834 163.6089 36.0322 163.9602 36.2461 C 166.9156 38.0303 169.718 40.0991 172.3342 42.4316 L 191.2632 31.5039 L 209.0791 62.3584 L 190.1501 73.2861 C 190.8608 76.7173 191.2524 80.1787 191.3201 83.6289 C 191.3296 84.0469 191.3213 84.4653 191.3225 84.8828 C 191.3213 85.2861 191.3296 85.6909 191.3201 86.0942 C 191.2524 89.5454 190.8621 93.0068 190.1501 96.4395 L 209.0791 107.3667 L 191.2632 138.2227 L 172.3342 127.2949 C 166.4493 132.5376 159.6046 136.4316 152.2817 138.8311 L 152.2817 160.7266 L 116.6497 160.7266 L 116.6497 138.7627 C 113.0939 137.5737 109.6033 136.0137 106.2302 134.0654 C 102.7739 132.0713 99.6121 129.7637 96.749 127.207 L 77.6671 138.2227 L 59.8511 107.3667 L 78.9331 96.3516 C 78.1488 92.5942 77.7324 88.7021 77.7324 84.7119 ZM 111.1315 109.8223 C 111.2856 109.9648 111.4412 110.1045 111.5977 110.2451 C 112.2112 110.7998 112.8459 111.3257 113.4949 111.8311 C 113.7986 112.0674 114.1083 112.2983 114.4204 112.5239 C 114.9519 112.9092 115.4954 113.2773 116.0458 113.6309 C 116.486 113.9121 116.9321 114.1836 117.3853 114.4443 C 117.8374 114.707 118.2954 114.957 118.7593 115.1978 C 119.3406 115.498 119.9314 115.7842 120.533 116.0518 C 120.8831 116.209 121.2366 116.3604 121.5925 116.5063 C 122.3542 116.8149 123.1278 117.1021 123.9167 117.3569 C 124.1162 117.4224 124.3142 117.4863 124.5149 117.5479 C 127.666 118.502 131.0037 119.0254 134.4657 119.0254 C 153.4183 119.0254 168.782 103.6631 168.782 84.7119 C 168.782 80.0713 167.8494 75.6519 166.1799 71.6133 C 166.1006 71.4248 166.0198 71.2363 165.938 71.0488 C 165.6295 70.3394 165.2878 69.6475 164.9331 68.9644 C 164.7064 68.5322 164.4751 68.103 164.2295 67.6807 C 163.9862 67.2559 163.73 66.8418 163.469 66.4292 C 163.0549 65.7803 162.6265 65.1396 162.1663 64.5176 C 162.0452 64.3516 161.9218 64.1885 161.7971 64.0244 C 159.1348 60.5605 155.7734 57.542 151.7549 55.2227 C 135.3413 45.7471 114.3528 51.3696 104.8776 67.7813 C 103.1453 70.7808 101.9304 73.9326 101.1805 77.1387 C 101.1343 77.3413 101.0916 77.5454 101.0488 77.748 C 100.8745 78.5596 100.7356 79.375 100.6229 80.1909 C 100.5707 80.5703 100.5256 80.9502 100.4865 81.332 C 100.4177 81.9873 100.3701 82.6431 100.3394 83.2988 C 100.3168 83.8188 100.3037 84.3398 100.3049 84.8604 C 100.3037 85.3848 100.3157 85.9082 100.3394 86.4312 C 100.3701 87.0835 100.4177 87.7363 100.4865 88.3887 C 100.5256 88.7744 100.5707 89.1572 100.6229 89.5391 C 100.7368 90.3521 100.8745 91.1636 101.0476 91.9717 C 101.0903 92.1787 101.1343 92.3857 101.1816 92.5908 C 101.9316 95.7949 103.1465 98.9473 104.8776 101.9438 C 106.6074 104.9419 108.73 107.5693 111.1315 109.8223 Z" fill="#ebebf2"/>
	<path id="490" d="M 563 108.4453 L 563 422.7271 C 563 430.2529 556.4023 437 548.881 437 L 96.118 437 C 88.5975 437 83 430.2529 83 422.7271 L 83 108.4453 C 83 100.9336 88.5975 95 96.118 95 L 548.881 95 C 556.4023 95 563 100.9336 563 108.4453 Z" fill="#3d3d89"/>
	<path id="489" d="M 541.729 120.252 L 541.729 404.8438 C 541.729 411.6592 535.7526 417.7686 528.9393 417.7686 L 118.8046 417.7686 C 111.9921 417.7686 106.9216 411.6592 106.9216 404.8438 L 106.9216 120.252 C 106.9216 113.4497 111.9921 108.0762 118.8046 108.0762 L 528.9393 108.0762 C 535.7526 108.0762 541.729 113.4497 541.729 120.252 Z" fill="url(#gradient1)"/>
	<path id="488" opacity="0.098" d="M 541.729 155.7178 L 541.729 404.8438 C 541.729 411.6592 535.7526 417.7686 528.9393 417.7686 L 118.8046 417.7686 C 111.9921 417.7686 106.9216 411.6592 106.9216 404.8438 L 106.9216 307.8774 C 143.0112 238.647 229.0327 227.3574 329.754 267.8721 C 472.3298 325.2227 533.1288 247.377 541.729 155.7178 Z" fill="#ffffff"/>
	<g id="318">
		<path d="M 227 145.3335 C 227 135.6577 228.6576 134 238.3333 134 L 471.3334 134 C 481.0091 134 482.6667 135.6577 482.6667 145.3335 L 482.6667 349.333 C 482.6667 359.0088 481.0091 360.6665 471.3334 360.6665 L 238.3333 360.6665 C 228.6576 360.6665 227 359.0088 227 349.333 L 227 145.3335 Z" stroke="#ffffff" stroke-width="3" fill="none"/>
	</g>
	<path id="317" opacity="0.3098" d="M 369.8757 343.9121 L 149.9187 343.9121 C 143.0579 343.9121 137.4958 338.3555 137.4958 331.5005 L 137.4958 198.6416 C 137.4958 191.7881 143.0579 186.2324 149.9187 186.2324 L 369.8757 186.2324 C 376.7357 186.2324 382.2979 191.7881 382.2979 198.6416 L 382.2979 331.5005 C 382.2979 338.3555 376.7357 343.9121 369.8757 343.9121 Z" fill="#3d3d89"/>
	<path id="316" d="M 380.8757 327.9121 L 160.9187 327.9121 C 154.0579 327.9121 148.4958 322.3555 148.4958 315.5005 L 148.4958 182.6416 C 148.4958 175.7881 154.0579 170.2324 160.9187 170.2324 L 380.8757 170.2324 C 387.7357 170.2324 393.2979 175.7881 393.2979 182.6416 L 393.2979 315.5005 C 393.2979 322.3555 387.7357 327.9121 380.8757 327.9121 Z" fill="url(#gradient2)"/>
	<path id="315" d="M 380.8743 315.5005 L 160.9194 315.5005 L 160.9194 182.6426 L 380.8743 182.6426 L 380.8743 315.5005 Z" fill="#3d3d89"/>
	<path id="314" d="M 235.3767 271.3931 C 233.054 273.8647 236.2752 275.7344 238.8028 274.7739 C 239.5472 272.3413 237.8404 269.1523 235.3767 271.3931 ZM 212.2272 253.3887 C 213.9979 255.7837 215.7435 258.2041 217.4754 260.6494 C 219.2336 258.2163 221.0043 255.7837 222.827 253.3887 C 219.285 253.5938 215.7561 253.5938 212.2272 253.3887 ZM 221.1459 263.8125 C 219.5544 265.7715 219.9523 268.4097 219.8495 270.7529 C 219.8884 277.1689 219.9266 283.584 219.8884 290 L 257.8846 289.9868 C 259.0011 275.0942 251.9559 260.0991 239.3931 251.8647 C 239.3035 256.5391 239.2903 261.2261 239.3674 265.8999 C 242.4601 268.2813 245.3091 272.3926 242.858 276.2725 C 240.1631 281.6763 231.168 280.4082 230.1028 274.4663 C 228.948 270.7788 231.8867 268 234.4656 265.9385 C 234.4913 260.3037 234.799 254.6567 234.3372 249.0474 L 232.2839 248.7529 C 228.1009 253.4019 224.8289 258.7798 221.1459 263.8125 ZM 224.9824 277.6421 C 228.1266 276.7207 229.2431 282.4316 225.6754 282.291 C 222.968 282.8545 222.1854 278.0391 224.9824 277.6421 ZM 201.41 247.9082 C 201.1274 253.7476 201.2045 259.5996 201.2684 265.4512 C 204.0015 266.9751 207.12 268.3584 208.6983 271.2393 C 210.6489 274.3003 210.2767 278.0649 210.5204 281.5352 C 208.9421 281.5225 207.3769 281.5225 205.8111 281.5225 C 205.4006 278.4878 206.0291 274.8379 203.6682 272.4688 C 201.14 269.7031 196.4181 269.5874 193.7745 272.2129 C 191.054 274.6201 191.7601 278.5645 191.3748 281.7783 L 186.614 281.7402 C 186.8966 278.1035 186.5244 274.0825 188.6799 270.9067 C 190.3867 268.0513 193.5947 266.8218 196.4049 265.3496 C 196.4563 260.7139 196.4437 256.0781 196.4049 251.4556 C 183.3289 259.459 175.9635 274.8252 177.1183 289.9868 L 215.1144 290 C 214.7554 281.7402 215.8074 273.314 214.6395 265.1445 C 210.5461 259.2026 206.8506 252.7485 201.41 247.9082 ZM 212.1758 208.7617 C 202.0898 211.2969 195.1605 222.2974 197.5346 232.4648 C 199.3179 242.4146 209.4684 249.9063 219.5287 248.6509 C 231.0139 247.8438 240.009 235.9478 237.5453 224.6919 C 235.7489 213.3594 223.2117 205.4453 212.1758 208.7617 Z" fill="#ffffff"/>
	<path id="313" d="M 82.5055 88.9331 C 82.5055 92.6792 79.4652 95.7163 75.7158 95.7163 C 71.9665 95.7163 68.9261 92.6792 68.9261 88.9331 C 68.9261 85.1865 71.9665 82.1494 75.7158 82.1494 C 79.4652 82.1494 82.5055 85.1865 82.5055 88.9331 Z" fill="#007bff"/>
	<path id="312" opacity="0.2" d="M 127.0854 92.9004 L 93.7786 92.9004 C 91.5945 92.9004 89.807 91.1152 89.807 88.9331 L 89.807 88.9331 C 89.807 86.751 91.5945 84.9648 93.7786 84.9648 L 127.0854 84.9648 C 129.2695 84.9648 131.0556 86.751 131.0556 88.9331 L 131.0556 88.9331 C 131.0556 91.1152 129.2695 92.9004 127.0854 92.9004 Z" fill="#007bff"/>
	<path id="311" opacity="0.2" d="M 470.9717 130.1089 L 447.6019 130.1089 C 446.3991 130.1089 445.4241 129.1343 445.4241 127.9331 L 445.4241 127.9331 C 445.4241 126.7314 446.3991 125.7573 447.6019 125.7573 L 470.9717 125.7573 C 472.1745 125.7573 473.1495 126.7314 473.1495 127.9331 L 473.1495 127.9331 C 473.1495 129.1343 472.1745 130.1089 470.9717 130.1089 Z" fill="#007bff"/>
	<path id="310" d="M 283.9573 203.1938 L 272.6504 203.1938 L 272.6504 200.0908 L 283.9573 200.0908 L 283.9573 203.1938 Z" fill="#ffc700"/>
	<path id="309" d="M 300.6766 203.1938 L 277.5377 203.1938 L 277.5377 200.0908 L 300.6766 200.0908 L 300.6766 203.1938 Z" fill="#ffc700"/>
	<path id="308" d="M 289.5333 215.8467 L 277.6504 215.8467 L 277.6504 212.7334 L 289.5333 212.7334 L 289.5333 215.8467 Z" fill="#ffffff"/>
	<path id="307" d="M 358.452 215.7529 L 292.3375 215.7529 L 292.3375 212.6494 L 358.452 212.6494 L 358.452 215.7529 Z" fill="#1e9aff"/>
	<path id="306" d="M 288.7571 227.4106 L 277.4506 227.4106 L 277.4506 224.3081 L 288.7571 224.3081 L 288.7571 227.4106 Z" fill="#ffffff"/>
	<path id="305" d="M 346.7805 227.542 L 277.2962 227.542 L 277.2962 224.4292 L 346.7805 224.4292 L 346.7805 227.542 Z" fill="#1e9aff"/>
	<path id="304" d="M 288.7571 239.0679 L 277.4506 239.0679 L 277.4506 235.9648 L 288.7571 235.9648 L 288.7571 239.0679 Z" fill="#ffffff"/>
	<path id="303" d="M 358.452 239.0679 L 292.3375 239.0679 L 292.3375 235.9648 L 358.452 235.9648 L 358.452 239.0679 Z" fill="#1e9aff"/>
	<path id="302" d="M 288.7571 250.7246 L 277.4506 250.7246 L 277.4506 247.6216 L 288.7571 247.6216 L 288.7571 250.7246 Z" fill="#ffffff"/>
	<path id="301" d="M 358.452 250.7246 L 292.3375 250.7246 L 292.3375 247.6216 L 358.452 247.6216 L 358.452 250.7246 Z" fill="#1e9aff"/>
	<path id="300" opacity="0.149" d="M 422.8807 164 L 368.1193 164 C 364.1877 164 361 160.7666 361 156.7773 L 361 101.2227 C 361 97.2344 364.1877 94 368.1193 94 L 422.8807 94 C 426.8123 94 430 97.2344 430 101.2227 L 430 156.7773 C 430 160.7666 426.8123 164 422.8807 164 Z" fill="#000000"/>
	<path id="299" d="M 425.5643 155 L 377.4356 155 C 372.7769 155 369 151.2227 369 146.5635 L 369 98.436 C 369 93.7769 372.7769 90 377.4356 90 L 425.5643 90 C 430.2231 90 434 93.7769 434 98.436 L 434 146.5635 C 434 151.2227 430.2231 155 425.5643 155 Z" fill="url(#gradient3)"/>
	<path id="298" opacity="0.149" d="M 127.4785 432.561 L 44.2698 432.561 C 38.306 432.561 33.4717 427.7275 33.4717 421.7637 L 33.4717 370.957 C 33.4717 364.9941 38.306 360.1602 44.2698 360.1602 L 127.4785 360.1602 C 133.4424 360.1602 138.2766 364.9941 138.2766 370.957 L 138.2766 421.7637 C 138.2766 427.7275 133.4424 432.561 127.4785 432.561 Z" fill="#000000"/>
	<path id="297" d="M 137.4785 417.561 L 54.2698 417.561 C 48.306 417.561 43.4717 412.7275 43.4717 406.7637 L 43.4717 355.957 C 43.4717 349.9941 48.306 345.1602 54.2698 345.1602 L 137.4785 345.1602 C 143.4424 345.1602 148.2766 349.9941 148.2766 355.957 L 148.2766 406.7637 C 148.2766 412.7275 143.4424 417.561 137.4785 417.561 Z" fill="url(#gradient4)"/>
	<path id="296" d="M 309.3572 302 L 277.6428 302 C 275.6307 302 274 300.3271 274 298.2637 L 274 265.7368 C 274 263.6729 275.6307 262 277.6428 262 L 309.3572 262 C 311.3693 262 313 263.6729 313 265.7368 L 313 298.2637 C 313 300.3271 311.3693 302 309.3572 302 Z" fill="#708ff8"/>
	<path id="295" opacity="0.149" d="M 122.4044 174 L 48.5956 174 C 43.2965 174 39 169.7041 39 164.4038 L 39 90.5962 C 39 85.2969 43.2965 81 48.5956 81 L 122.4044 81 C 127.7036 81 132 85.2969 132 90.5962 L 132 164.4038 C 132 169.7041 127.7036 174 122.4044 174 Z" fill="#000000"/>
	<path id="294" opacity="0.149" d="M 455.2616 411 L 395.7383 411 C 391.4649 411 388 407.5356 388 403.2612 L 388 343.7388 C 388 339.4653 391.4649 336 395.7383 336 L 455.2616 336 C 459.5352 336 463 339.4653 463 343.7388 L 463 403.2612 C 463 407.5356 459.5352 411 455.2616 411 Z" fill="#000000"/>
	<path id="293" opacity="0.149" d="M 511.0234 309 L 441.9765 309 C 437.0193 309 433 304.9351 433 299.9199 L 433 230.0801 C 433 225.0659 437.0193 221 441.9765 221 L 511.0234 221 C 515.9808 221 520 225.0659 520 230.0801 L 520 299.9199 C 520 304.9351 515.9808 309 511.0234 309 Z" fill="#000000"/>
	<path id="292" d="M 126.3782 155.0625 L 64.7679 155.0625 C 58.8041 155.0625 53.9692 150.2285 53.9692 144.2656 L 53.9692 82.6606 C 53.9692 76.6968 58.8041 71.8633 64.7679 71.8633 L 126.3782 71.8633 C 132.342 71.8633 137.1769 76.6968 137.1769 82.6606 L 137.1769 144.2656 C 137.1769 150.2285 132.342 155.0625 126.3782 155.0625 Z" fill="url(#gradient5)"/>
	<path id="291" d="M 80.3978 96.751 L 74.548 96.751 L 74.548 94.0615 L 80.3978 94.0615 L 80.3978 96.751 Z" fill="#ffffff"/>
	<path id="290" d="M 113.3585 96.751 L 83.4559 96.751 L 83.4559 94.0615 L 113.3585 94.0615 L 113.3585 96.751 Z" fill="#3d3d89"/>
	<path id="289" d="M 83.6375 105.7744 L 74.548 105.7744 L 74.548 103.085 L 83.6375 103.085 L 83.6375 105.7744 Z" fill="#ffffff"/>
	<path id="288" d="M 116.5981 105.7744 L 86.6956 105.7744 L 86.6956 103.085 L 116.5981 103.085 L 116.5981 105.7744 Z" fill="#3d3d89"/>
	<path id="287" d="M 80.3978 122.7417 L 74.548 122.7417 L 74.548 120.0522 L 80.3978 120.0522 L 80.3978 122.7417 Z" fill="#ffffff"/>
	<path id="286" d="M 113.3585 122.7417 L 83.4559 122.7417 L 83.4559 120.0522 L 113.3585 120.0522 L 113.3585 122.7417 Z" fill="#3d3d89"/>
	<path id="285" d="M 83.6375 131.7651 L 74.548 131.7651 L 74.548 129.0757 L 83.6375 129.0757 L 83.6375 131.7651 Z" fill="#ffffff"/>
	<path id="284" d="M 116.5981 131.7651 L 86.6956 131.7651 L 86.6956 129.0757 L 116.5981 129.0757 L 116.5981 131.7651 Z" fill="#3d3d89"/>
	<path id="283" d="M 78.2378 114.7979 L 69.1483 114.7979 L 69.1483 112.1084 L 78.2378 112.1084 L 78.2378 114.7979 Z" fill="#ffffff"/>
	<path id="282" d="M 121.9972 114.7979 L 81.296 114.7979 L 81.296 112.1084 L 121.9972 112.1084 L 121.9972 114.7979 Z" fill="#3d3d89"/>
	<path id="257" opacity="0.149" d="M 558.4044 152 L 484.5956 152 C 479.2965 152 475 147.7041 475 142.4038 L 475 68.5962 C 475 63.2969 479.2965 59 484.5956 59 L 558.4044 59 C 563.7036 59 568 63.2969 568 68.5962 L 568 142.4038 C 568 147.7041 563.7036 152 558.4044 152 Z" fill="#000000"/>
	<path id="161" d="M 577.0204 128 L 506.2065 128 C 501.1218 128 497 123.8887 497 118.8169 L 497 48.1826 C 497 43.1113 501.1218 39 506.2065 39 L 577.0204 39 C 582.105 39 586.2273 43.1113 586.2273 48.1826 L 586.2273 118.8169 C 586.2273 123.8887 582.105 128 577.0204 128 Z" fill="#007bff"/>
	<path id="160" d="M 577.0204 128 L 506.2065 128 C 501.1218 128 497 123.8887 497 118.8169 L 497 48.1826 C 497 43.1113 501.1218 39 506.2065 39 L 577.0204 39 C 582.105 39 586.2273 43.1113 586.2273 48.1826 L 586.2273 118.8169 C 586.2273 123.8887 582.105 128 577.0204 128 Z" fill="url(#gradient6)"/>
	<path id="159" opacity="0.2" d="M 580.7931 128 L 509.9784 128 C 504.8938 128 500.7727 123.8887 500.7727 118.8169 L 500.7727 48.1826 C 500.7727 43.1113 504.8938 39 509.9784 39 L 580.7931 39 C 585.8776 39 590 43.1113 590 48.1826 L 590 118.8169 C 590 123.8887 585.8776 128 580.7931 128 Z" fill="#ffffff"/>
	<path id="158" d="M 510.9902 87.2598 C 511.0298 90.4199 510.75 93.6201 511.27 96.7598 C 514.4199 100.4902 519.7598 100.8301 524.21 101.8398 C 524.3398 97.9902 525.6602 94.3301 528.1401 91.3799 C 522.2202 91.1299 516.2598 90.0898 510.9902 87.2598 ZM 544.77 83.7202 C 542.1499 85.8501 541.0601 89.1201 540.21 92.25 C 537.77 92.0898 535.1099 91.4902 532.8799 92.79 C 528.8599 94.7202 527.0298 100 528.9502 104.0098 C 530.29 107.1201 533.5898 109.1499 536.9702 109.0298 C 545.9702 109.1899 554.9702 108.9902 563.98 109.1099 C 566.8198 109.0098 570.1099 109.4502 572.4199 107.3999 C 575.5801 104.9102 575.8398 99.73 572.98 96.9199 C 571.4399 95.1201 568.9502 95 566.8198 94.5 C 566.46 91.0601 565.8501 87.3901 563.3198 84.8198 C 558.8198 79.4302 549.8799 78.9102 544.77 83.7202 ZM 510.9902 72.8398 C 511.5298 76.6099 509.25 82.25 513.6099 84.3301 C 521.0098 88.0698 529.71 88 537.7598 86.9902 C 539.9902 82.5 543.8101 79.0601 548.4702 77.23 C 548.48 75.7598 548.4902 74.2998 548.5098 72.8398 C 536.9102 78.3799 522.5801 78.3999 510.9902 72.8398 ZM 512.79 64.77 C 511.1899 65.5098 510.2798 67.7798 512.1299 68.8301 C 517.48 72.75 524.5498 73.0898 530.96 73.1401 C 537.29 72.7798 544.6802 72.25 549.0601 67.0098 C 544.8501 62.21 538.0601 61.4302 532.0698 61.0298 C 525.54 60.8799 518.5 61.27 512.79 64.77 Z" fill="#ffffff"/>
	<path id="150" d="M 381.8345 113.3984 C 381.4382 115.0273 381.5356 116.7188 381.5288 118.3896 C 381.598 125.959 381.501 133.5288 381.5563 141.0986 C 381.4731 141.8892 381.8691 142.9771 382.842 142.9146 C 394.6766 143.1367 406.532 142.769 418.3735 143.0952 C 416.8723 142.3115 415.1907 141.5977 414.2524 140.1074 C 413.0503 138.4297 413.1891 136.2671 413.1545 134.3193 C 413.2029 128.4966 413.1752 122.6802 413.1823 116.8574 C 407.8312 116.8296 402.4874 116.8989 397.1367 116.8501 C 394.8782 117.2461 394.4263 114.5835 393.4048 113.1904 C 389.5479 113.2524 385.6633 112.8853 381.8345 113.3984 ZM 395.3715 122.292 C 397.4007 122.0078 399.5132 121.9805 401.5352 122.3408 C 402.4944 123.2139 402.0289 124.8086 402.293 125.98 C 403.4951 126.2778 405.8923 125.564 405.9202 127.4702 C 405.9481 129.5015 406.379 131.7544 405.545 133.6675 C 404.4612 133.8892 403.356 133.9448 402.2579 134.0488 C 401.994 135.2412 402.6404 137.0361 401.3408 137.7437 C 399.2978 137.9932 397.2059 137.9863 395.17 137.7158 C 394.1901 136.8008 394.6349 135.2412 394.3916 134.0562 C 393.2379 133.938 392.0635 133.9102 390.9516 133.5776 C 390.5 131.2139 390.7226 128.7944 390.7504 126.4097 C 391.9665 126.2437 393.1826 126.1118 394.4056 125.9868 C 394.7462 124.8086 393.9746 122.8535 395.3715 122.292 ZM 397.213 124.7598 C 397.1367 125.8271 397.1228 126.9019 396.9558 127.9624 C 396.1011 129.0439 394.489 128.5659 393.2936 128.8569 L 393.3146 131.2275 C 394.3848 131.29 395.4619 131.3315 396.532 131.4912 C 397.3589 132.5513 397.0183 134.021 397.2408 135.269 C 397.7966 135.2754 398.9018 135.2754 399.4576 135.2754 C 399.6381 134.0625 399.3463 132.6899 400.0206 131.6021 C 401.1186 131.3525 402.2512 131.2969 403.377 131.1997 C 403.3699 130.4028 403.3699 129.6055 403.3699 128.8218 C 402.2858 128.7114 401.1949 128.6694 400.1247 128.4688 C 399.2421 127.4907 399.7077 125.9663 399.4783 124.7671 C 398.7209 124.7598 397.9636 124.7529 397.213 124.7598 ZM 421.9312 110.7363 C 421.9312 121.5293 421.8409 132.3228 421.973 143.1157 C 424.0787 142.0898 426.1842 140.3501 425.9965 137.7646 C 426.0522 129.4321 426.0451 121.0928 426.0037 112.7607 C 426.4621 110.2861 423.4045 110.9858 421.9312 110.7363 ZM 385.2535 98.8271 C 384.5029 102.6816 385.1144 106.6675 384.9267 110.5771 C 388.2486 110.688 391.6191 110.2725 394.9128 110.813 C 395.7607 111.8735 396.379 113.0933 397.0671 114.272 C 402.8976 114.3413 408.7349 114.1543 414.5582 114.3413 C 415.6351 114.1748 415.7882 115.5405 415.7743 116.2959 C 415.9063 123.2207 415.6006 130.167 415.8856 137.0986 C 415.9063 138.998 417.8452 139.7954 419.1794 140.7104 C 419.4433 127.2412 419.2835 113.7588 419.2696 100.29 C 419.5618 99.0493 418.4009 98.4946 417.3518 98.6196 C 408.0745 98.5571 398.7905 98.647 389.5065 98.585 C 388.0888 98.5918 386.6501 98.5503 385.2535 98.8271 Z" fill="#ffffff"/>
	<path id="149" d="M 458.5643 395 L 410.4356 395 C 405.7769 395 402 391.2227 402 386.5635 L 402 338.436 C 402 333.7769 405.7769 330 410.4356 330 L 458.5643 330 C 463.2231 330 467 333.7769 467 338.436 L 467 386.5635 C 467 391.2227 463.2231 395 458.5643 395 Z" fill="url(#gradient7)"/>
	<path id="148" d="M 71.0129 383.8247 C 71.0052 390.2085 70.9812 396.6001 71.0287 402.9917 L 79.1233 402.9761 C 79.1233 396.6084 79.0997 390.2402 79.1392 383.8721 C 76.4331 383.8247 73.7189 383.8164 71.0129 383.8247 ZM 98.9207 378.7139 L 98.9207 402.9839 L 107.0392 402.9839 L 107.0392 378.7061 L 98.9207 378.7139 ZM 84.9627 372.1787 L 84.9627 402.9839 L 93.089 402.9761 L 93.0812 372.1787 L 84.9627 372.1787 ZM 112.8786 367.1719 C 112.8944 379.1118 112.8388 391.0518 112.9103 403 C 115.6005 402.9839 118.283 402.9839 120.9731 402.9917 C 121.0207 391.0518 120.989 379.1118 120.9967 367.1719 L 112.8786 367.1719 ZM 112.5621 357.875 C 110.125 360.0239 107.672 362.1655 105.1479 364.2026 C 103.2726 363.9087 101.413 364.2109 99.7277 365.0864 C 97.631 364.3066 95.5578 363.4546 93.5004 362.5635 C 92.812 360.3823 91.3087 357.8506 88.6501 358.2568 C 85.9916 358.3442 85.0419 361.0747 84.6146 363.2715 C 82.4703 364.561 80.3102 365.8267 78.1423 367.0684 C 75.9977 366.2563 73.0938 366.002 71.8358 368.3657 C 69.7785 371.3828 73.1255 375.7134 76.544 374.4634 C 78.7277 373.9536 79.2419 371.5977 79.6932 369.7192 C 81.8293 368.3579 84.0134 367.0684 86.2211 365.8188 C 88.2622 366.6465 90.3752 366.4956 92.2819 365.3652 C 94.355 366.1533 96.4124 366.9971 98.4617 367.8726 C 99.1583 370.396 101.2944 373.1265 104.2381 372.0195 C 106.7305 371.4146 106.8097 368.5889 107.3317 366.5513 C 109.4682 364.1074 112.2141 362.2686 114.6349 360.1191 C 116.8507 360.4536 119.6754 360.1592 120.4906 357.6519 C 121.9858 354.2847 117.8475 350.5913 114.7142 352.5415 C 112.6568 353.4727 112.5699 355.9165 112.5621 357.875 Z" fill="#ffffff"/>
	<path id="83" d="M 294.9059 280.665 C 294.6596 281.855 296.0799 282.5781 295.9382 283.7793 C 295.9482 285.3257 294.5212 286.2153 293.6171 287.2432 C 292.3182 288.4229 291.2928 289.9697 289.7712 290.8594 C 287.7708 291.7832 285.5306 289.3018 286.5966 287.333 C 287.5683 285.8418 289.0089 284.7515 290.1693 283.4263 C 289.9331 282.3291 289.8185 281.208 289.8218 280.0869 C 288.2834 281.793 286.5831 283.3359 285.0616 285.0596 C 283.7695 286.5269 283.4659 288.7827 284.2723 290.5752 C 285.1865 292.7349 287.6459 294.0322 289.8893 293.5063 C 291.9877 293.1084 293.2529 291.1738 294.7202 289.7793 C 296.1575 288.1978 298.1816 286.793 298.4109 284.4609 C 298.7349 282.3848 297.6316 280.3569 295.9718 279.2217 C 295.5974 279.689 295.1791 280.1284 294.9059 280.665 ZM 295.6547 274.1279 C 294.4133 275.5054 292.9626 276.6958 291.8797 278.2148 C 290.3651 280.502 291.1071 283.9175 293.3743 285.3882 C 294.1198 285.2256 294.8248 284.2529 294.6359 283.4297 C 294.2142 282.5405 293.3945 281.7236 293.6238 280.644 C 293.8398 279.2734 295.0948 278.4775 295.9415 277.5156 C 297.1223 276.4395 298.0533 275.0176 299.4703 274.2422 C 301.4777 273.3496 303.694 275.8584 302.6011 277.8135 C 301.7205 279.1665 300.4218 280.1563 299.3691 281.3535 C 299.6187 282.4468 299.7133 283.5679 299.7166 284.6895 C 300.5094 283.8276 301.3292 282.9937 302.1523 282.1597 C 303.5085 280.7686 305.2122 279.3599 305.3538 277.2388 C 305.789 274.166 303.0261 271.2041 300.0134 271.5083 C 298.2052 271.5498 296.8187 272.8545 295.6547 274.1279 Z" fill="#ffffff"/>
	<path id="82" d="M 356.3572 302 L 324.6428 302 C 322.6307 302 321 300.3271 321 298.2637 L 321 265.7368 C 321 263.6729 322.6307 262 324.6428 262 L 356.3572 262 C 358.3693 262 360 263.6729 360 265.7368 L 360 298.2637 C 360 300.3271 358.3693 302 356.3572 302 Z" fill="#708ff8"/>
	<path id="81" d="M 518.3782 297.2119 L 456.7678 297.2119 C 450.8041 297.2119 445.9692 292.377 445.9692 286.4131 L 445.9692 224.8096 C 445.9692 218.8457 450.8041 214.0112 456.7678 214.0112 L 518.3782 214.0112 C 524.342 214.0112 529.1769 218.8457 529.1769 224.8096 L 529.1769 286.4131 C 529.1769 292.377 524.342 297.2119 518.3782 297.2119 Z" fill="#1988ff"/>
	<path id="80" d="M 490.5629 264.8071 C 489.5187 266.6611 488.4569 268.4971 487.4127 270.3506 C 490.1417 270.0449 495.5122 271.5664 495.6438 267.3428 C 495.3365 264.7725 492.4846 264.9473 490.5629 264.8071 ZM 488.1235 252.2861 C 481.2349 258.3364 474.2759 264.2998 467.361 270.3071 C 472.7843 270.3154 478.2072 270.333 483.6305 270.2979 C 488.4484 262.0088 493.222 253.6934 498.1449 245.4658 C 495.1964 248.3159 491.1246 249.5225 488.1235 252.2861 ZM 502.6816 244.1978 C 499.2504 249.8638 496.0123 255.6436 492.6166 261.3359 C 494.6698 262.0088 497.1182 262.5596 498.1273 264.7197 C 500.2509 268.165 497.7061 273.2715 493.5991 273.4814 C 486 273.8481 478.3828 273.4375 470.7748 273.6646 C 471.3013 274.6523 470.7572 277.0571 472.4419 276.8389 C 481.8141 277.0923 491.2035 276.8735 500.5842 276.9785 C 503.3925 277.04 506.2183 276.9961 509 276.4893 C 508.1927 267.5703 507.2274 258.6602 506.2795 249.7588 C 506.2358 247.3281 504.4366 245.623 502.6816 244.1978 ZM 467.1682 248.9629 C 466.001 255.521 464.7987 262.0967 464 268.7158 C 471.1869 262.8398 478.0581 256.5879 485.14 250.5986 C 480.5857 249.96 476.9963 247.1792 473.8461 244.0576 C 470.7748 243.6113 467.5718 245.8418 467.1682 248.9629 ZM 474.7236 235.8384 C 475.303 238.7412 476.1453 241.793 478.4355 243.8564 C 482.6741 248.2373 490.37 248.3076 494.7136 244.0229 C 497.5128 241.5918 498.3467 237.8408 498.5575 234.2998 C 495.3365 234.4131 491.8179 234.5879 489.7205 231.6938 C 485.4468 234.9814 480.0325 236.0396 474.7236 235.8384 ZM 485.1486 221 C 482.4899 221.647 479.8046 222.7227 477.9702 224.8213 C 475.952 226.9199 475.3204 229.8574 474.6182 232.5684 C 477.0138 232.4629 479.4536 232.4805 481.8052 231.9473 C 484.9468 231.2129 487.4653 229.1055 490.0629 227.3306 C 491.3179 228.5283 492.5724 229.7266 493.8185 230.9331 C 495.3983 230.9248 496.9777 230.9072 498.5575 230.8896 C 497.1357 225.9229 493.2922 221.6211 487.9303 221 L 485.1486 221 Z" fill="#ffffff"/>
	<path id="79" d="M 334.8837 272.0522 C 336.5768 269.7861 339.5389 268.6128 342.297 269.1147 C 345.1135 269.5708 347.5679 271.748 348.3916 274.5166 C 348.8409 275.9766 348.7578 277.5298 348.7869 279.0405 C 349.4609 279.104 350.1556 279.0786 350.817 279.2813 C 351.0957 280.0278 350.9586 280.8638 351 281.6484 C 350.9252 285.7295 351.0792 289.8188 350.9336 293.895 C 350.921 295.1528 349.7229 296.0645 348.5331 295.9717 C 343.516 296.0093 338.4905 296.0093 333.4693 295.9717 C 332.3003 296.0601 331.1063 295.1738 331.0773 293.9375 C 330.919 289.9873 331.0813 286.0293 331.0065 282.0747 C 331.048 281.1465 330.8859 280.1675 331.1937 279.2769 C 331.851 279.083 332.5416 279.104 333.2197 279.0405 C 333.153 276.6265 333.282 273.9932 334.8837 272.0522 ZM 337.7999 273.7656 C 336.3771 275.1494 336.5561 277.2808 336.5435 279.1084 C 339.5182 279.1162 342.4883 279.1162 345.463 279.1084 C 345.4297 277.3652 345.6418 275.3691 344.3897 273.9722 C 342.8046 271.9507 339.5056 271.8452 337.7999 273.7656 ZM 339.9216 283.9316 C 338.8816 284.4888 338.4865 285.9321 339.1519 286.9404 C 340.0006 288.2739 339.2852 289.8691 339.4182 291.3335 C 340.4583 291.5786 341.5566 291.5825 342.5966 291.3252 C 342.6299 290.186 342.4053 289.0591 342.4386 287.9238 C 342.7256 287.0039 343.5244 286.0752 343.05 285.0713 C 342.634 283.8218 341.024 283.248 339.9216 283.9316 Z" fill="#ffffff"/>
	<g id="106">
		<path d="M 373.6943 48.8608 C 373.6943 42.5234 368.5527 37.3857 362.2104 37.3857 C 361.0635 37.3857 359.9578 37.5586 358.9124 37.8711 C 359.0798 36.7212 359.1704 35.5459 359.1704 34.3486 C 359.1704 20.9277 348.2816 10.0488 334.8506 10.0488 C 333.3193 10.0488 331.823 10.1973 330.3706 10.4673 C 326.6324 4.3555 319.9131 0.2617 312.2197 0.2617 C 300.5745 0.2617 291.1289 9.6104 290.9556 21.2041 C 290.8369 21.2021 290.7207 21.1865 290.6019 21.1865 C 279.7822 21.1865 271.011 29.9502 271.011 40.7607 C 271.011 51.5718 279.7822 60.3359 290.6019 60.3359 L 362.5479 60.3359 L 362.5333 60.3193 C 368.7245 60.1465 373.6943 55.0894 373.6943 48.8608 Z" fill="#efefef"/>
		<path d="M 313.2219 49.752 L 313.2219 72.1221 L 331.4834 72.1221 L 331.4834 49.752 L 346.3528 49.752 L 322.3528 29.4883 L 298.3521 49.752 L 313.2219 49.752 Z" fill="#e0e0e0"/>
	</g>
	<path d="M 444.4921 343 L 444.8806 343 C 446.3053 343.0529 447.7195 343.4949 448.8841 344.3125 C 450.4015 345.3511 451.4897 346.9807 451.8514 348.7664 C 452.1611 350.2374 451.9831 351.803 451.3516 353.1707 C 450.6128 354.7915 449.2425 356.1192 447.5846 356.8191 C 446.0388 357.4838 444.2548 357.5894 442.6391 357.1106 C 441.2818 356.7166 440.0724 355.9022 439.1476 354.8539 C 435.1254 357.2403 431.1007 359.6218 427.0818 362.013 C 427.5011 363.0508 427.6978 364.183 427.5905 365.2978 C 427.5433 365.7783 427.406 366.2427 427.2987 366.7119 C 431.1397 368.653 434.984 370.5893 438.8257 372.5288 C 439.7417 371.3413 441.0038 370.4019 442.4513 369.9463 C 443.9313 369.4642 445.5698 369.4778 447.0441 369.9751 C 448.5363 370.474 449.8569 371.463 450.7372 372.7522 C 451.5442 373.9118 451.9863 375.3107 451.9993 376.7161 C 452.0172 378.1535 451.5857 379.5941 450.7697 380.7865 C 449.4896 382.714 447.2237 383.936 444.8904 384 L 444.5019 384 C 443.1755 383.9488 441.8572 383.5676 440.743 382.8501 C 438.5559 381.4936 437.2214 378.9279 437.3945 376.3854 C 437.4205 375.8032 437.5969 375.2434 437.7342 374.6805 C 433.9063 372.7442 430.0751 370.8143 426.2454 368.8805 C 425.5083 369.8606 424.5476 370.6854 423.4236 371.2059 C 421.9697 371.8954 420.2775 372.078 418.7049 371.7264 C 417.0989 371.3757 415.6279 370.4652 414.6039 369.1984 C 413.8659 368.2903 413.3514 367.2044 413.1328 366.0601 C 412.7704 364.2471 413.158 362.3004 414.1951 360.7605 C 414.9956 359.5465 416.1806 358.5856 417.5395 358.0379 C 419.1308 357.3893 420.9602 357.3236 422.5922 357.8697 C 423.8284 358.2685 424.9182 359.0293 425.7895 359.9718 C 429.8182 357.575 433.8551 355.1903 437.8846 352.7951 C 437.4043 351.5716 437.2523 350.2215 437.4993 348.929 C 437.8318 347.06 438.959 345.3455 440.5503 344.2765 C 441.702 343.4828 443.0918 343.0544 444.4921 343 Z" fill="#ffffff"/>
</svg>