<svg xmlns="http://www.w3.org/2000/svg" width="56" height="58" viewBox="0 0 56 58">
  <defs>
    <style>
      .cls-1 {
        fill: #fff;
        fill-rule: evenodd;
      }
    </style>
  </defs>
  <path id="_58" data-name="58" class="cls-1" d="M564.775,1038.58c0.027,4.8-.1,9.62.109,14.42h0.027c4.09-2.52,8.342-4.77,12.413-7.3-0.045-4.8-.008-9.59-0.027-14.38C573.126,1033.75,568.928,1036.12,564.775,1038.58Zm-16-7.26-0.009,14.39c4.153,2.46,8.361,4.82,12.5,7.29H561.3c-0.018-4.83.009-9.66-.009-14.48C557.122,1036.1,552.978,1033.66,548.77,1031.32Zm1.751-3.04c4.17,2.42,8.351,4.8,12.5,7.25,4.207-2.37,8.36-4.81,12.54-7.22q-6.215-3.66-12.5-7.22C558.872,1023.47,554.728,1025.92,550.521,1028.28ZM558.128,995a10.835,10.835,0,0,0-7.227,5.08c-1.46,2.41-1.224,5.33-1.433,8.03-5.64-.74-11.915,2.01-13.755,7.69-2.657,6.72,2.466,14.56,9.53,15.4,0.027-1.32.064-2.62,0.082-3.93l17.709-10.2c5.93,3.36,11.8,6.82,17.709,10.2l0.073,4c2.557-.07,5.386-0.17,7.363-2.03a8.073,8.073,0,0,0-.009-12.27c-2.476-2.28-6.021-1.99-9.132-2.01-0.127-2.33-.317-4.95-2.239-6.58-1.886-1.98-4.77-1.87-7.291-1.86,0.463-5.43-3.273-10.822-8.832-11.52h-2.548Z" transform="translate(-535 -995)"/>
</svg>
