<svg xmlns="http://www.w3.org/2000/svg" width="46" height="47" viewBox="0 0 46 47">
  <defs>
    <style>
      .cls-1 {
        fill: #fff;
        fill-rule: evenodd;
      }
    </style>
  </defs>
  <path id="_59" data-name="59" class="cls-1" d="M961.366,1021.87a57.439,57.439,0,0,1-.216,7.47c-1.668.34-3.313-.48-4.988-0.3-2.092.84-2.02,4.43,0.237,4.97,1.589-.04,3.148-0.49,4.744-0.39a92.641,92.641,0,0,1,.194,10.38h18.019a4.838,4.838,0,0,0,3.644-3.75v-18.38l-6.641.01c-0.424,1.82-.446,3.99-1.912,5.33a5.3,5.3,0,0,1-7.346-.01c-1.459-1.34-1.466-3.51-1.89-5.32C963.932,1021.88,962.645,1021.88,961.366,1021.87Zm-14.584-5.27c-0.165,1.7.489,3.36,0.381,5.07a88.341,88.341,0,0,1-10.163.2v18.41a4.847,4.847,0,0,0,3.673,3.72h17.976c0.007-2.26,0-4.52,0-6.79-1.919-.44-4.277-0.5-5.527-2.32a5.586,5.586,0,0,1,.308-7.12c1.316-1.5,3.436-1.51,5.219-1.95,0-1.31,0-2.62.007-3.93a53.919,53.919,0,0,1-7.411-.23c-0.028-1.7.554-3.36,0.41-5.06A2.677,2.677,0,0,0,946.782,1016.6ZM961.344,997l0.007,6.79c1.783,0.44,3.9.45,5.218,1.95a5.594,5.594,0,0,1-.014,7.51c-1.308,1.48-3.414,1.49-5.175,1.91-0.014,1.32-.029,2.63-0.05,3.94a56.259,56.259,0,0,1,7.345.22c0.2,1.71-.517,3.38-0.331,5.08a2.68,2.68,0,0,0,4.866.02c0.195-1.71-.488-3.38-0.359-5.1a90.378,90.378,0,0,1,10.149-.19v-18.4a4.834,4.834,0,0,0-3.658-3.73h-18Zm-20.7,0a4.857,4.857,0,0,0-3.644,3.74v18.39l6.641-.01c0.431-1.82.446-4,1.919-5.34a5.312,5.312,0,0,1,7.36.04c1.438,1.34,1.445,3.49,1.876,5.3,1.28,0,2.559,0,3.838.01a53.671,53.671,0,0,1,.23-7.45c1.625-.44,3.278.48,4.931,0.29a2.773,2.773,0,0,0-.022-4.99c-1.653-.08-3.27.59-4.923,0.35a93.432,93.432,0,0,1-.187-10.33H940.644Z" transform="translate(-937 -997)"/>
</svg>
